<?xml version="1.0" encoding="UTF-8" standalone="no"?>
<!-- Created with Inkscape (http://www.inkscape.org/) -->
<svg
   xmlns:svg="http://www.w3.org/2000/svg"
   xmlns="http://www.w3.org/2000/svg"
   version="1.0"
   width="437.19"
   height="516.42902"
   id="svg2">
  <defs
     id="defs4">
    <marker
       markerUnits="strokeWidth"
       refX="0"
       refY="5"
       markerWidth="4"
       markerHeight="3"
       orient="auto"
       viewBox="0 0 10 10"
       id="ArrowEnd">
      <path
         d="M 0,0 L 10,5 L 0,10 L 0,0 z "
         id="path7" />
    </marker>
    <marker
       markerUnits="strokeWidth"
       refX="10"
       refY="5"
       markerWidth="4"
       markerHeight="3"
       orient="auto"
       viewBox="0 0 10 10"
       id="ArrowStart">
      <path
         d="M 10,0 L 0,5 L 10,10 L 10,0 z "
         id="path10" />
    </marker>
  </defs>
  <path
     d="M 437.076,297.756 L 437.004,0.107971 L 0.251999,0.179932 L 0.108002,298.476 C 2.196,419.22 100.908,515.772 219.492,515.772 C 339.228,515.772 437.94,418.14 437.076,297.756 z "
     style="fill:#000000;fill-rule:evenodd;stroke:#000000;stroke-width:0.21600001;stroke-linejoin:round"
     id="path18" />
  <path
     d="M 7.308,291.492 L 7.308,8.24396 L 217.692,8.24396 L 218.34,507.492 L 216.756,505.908 C 213.444,506.196 219.636,507.276 215.172,507.42 C 147.276,508.932 9.828,448.596 7.308,291.492 z "
     style="fill:#da251d;fill-opacity:1;fill-rule:evenodd;stroke:#000000;stroke-width:0.21600001;stroke-linejoin:round"
     id="path20" />
  <path
     d="M 11.34375,167.59375 C 10.26375,167.59375 10.9105,168.4465 12.0625,174.0625 C 14.1505,181.9825 17.101249,190.05 21.78125,197.25 C 23.43725,200.274 25.9595,202.87276 27.6875,205.96875 C 27.6875,205.96875 27.697,206.09374 27.625,206.09375 C 23.737,206.30975 20.474999,207.68075 16.875,207.96875 C 15.939,207.82475 15.36675,207.4525 14.71875,207.8125 C 14.86275,208.0285 15.1685,208.18075 15.3125,208.46875 C 23.0885,213.14875 28.827501,219.57375 38.1875,222.09375 C 40.7795,222.66975 43.535749,222.8615 46.34375,223.4375 C 45.11975,225.1655 34.313501,224.83151 31.9375,224.6875 C 29.6335,224.1115 26.9535,223.00676 24.9375,222.71875 C 24.9375,222.79075 24.95925,222.94025 25.03125,223.15625 C 27.04725,224.66825 29.47725,226.825 31.78125,228.625 C 37.90125,232.585 46.115249,234.69575 53.53125,235.34375 C 53.45925,235.84775 51.513501,237.04625 50.9375,237.40625 C 48.3455,239.49425 43.890748,245.34375 40.21875,245.34375 C 31.79475,238.07175 19.4655,238.63625 15.9375,250.15625 C 15.0015,256.70825 17.7475,262.41676 19.1875,268.96875 C 19.4755,277.46475 12.9875,276.9635 11.1875,269.1875 C 11.1155,269.1875 10.91575,269.09374 10.84375,269.09375 C 8.82775,274.20575 9.8932499,279.54949 13.78125,283.4375 C 20.90925,285.5975 23.719251,282.64726 27.03125,277.03125 C 28.18325,277.24725 27.902251,279.97301 28.40625,281.125 C 32.51025,277.093 30.91275,270.18549 28.96875,265.9375 C 27.88875,264.6415 26.018999,262.03924 25.875,261.03125 C 30.555,261.31925 33.018001,265.57401 35.25,269.75 C 38.418,279.398 28.76725,288.74324 26.03125,298.03125 C 24.51925,305.08725 24.374001,309.11924 26.75,316.03125 C 34.598,332.51925 49.701748,332.83401 63.09375,322.25 C 64.02975,321.314 71.086,312.86724 73.75,315.53125 C 73.75,322.08325 76.582002,327.27676 79.75,333.46875 C 81.406,341.10075 77.794001,342.38651 72.25,346.5625 C 67.93,348.7225 71.454247,357.67025 74.40625,360.40625 C 81.89425,365.44625 87.450248,369.67799 90.90625,378.75 C 90.90625,386.094 78.515252,381.62126 80.53125,392.78125 C 82.69125,395.80525 79.820003,397.89726 84.5,401.28125 C 85.58,401.78525 91.764999,404.0935 92.125,402.4375 C 90.757,401.2855 88.591247,399.27151 90.03125,397.6875 C 95.93525,396.7515 95.433498,393.74375 95.9375,388.34375 C 98.1695,386.11175 101.34375,388.83875 101.34375,391.71875 C 99.61575,396.68675 99.177498,400.50851 104.9375,402.8125 C 108.1055,402.8125 110.92,401.4205 112,405.8125 C 112,406.1005 111.93075,407.3465 112.21875,407.5625 C 112.36275,407.4185 112.50275,407.40626 112.71875,407.40625 C 114.59075,404.16625 118.69375,399.27801 115.09375,395.75 C 115.16575,395.102 115.17125,395.18201 115.53125,394.75 C 116.03525,394.75 116.68625,395.23375 117.40625,395.59375 C 119.49425,395.73775 122.666,395.46574 124.25,393.59375 C 128.498,391.57775 128.99474,395.17301 130.21875,398.125 C 130.36275,398.125 130.50275,398.0625 130.71875,398.0625 C 132.01475,393.3825 134.16899,388.04723 128.625,386.03125 C 127.617,383.87125 126.959,383.1465 125.375,381.5625 C 125.375,381.4185 125.375,381.34376 125.375,381.34375 C 126.599,380.11975 127.04625,379.05551 127.40625,377.6875 C 130.07025,377.3995 130.651,379.10224 131.875,381.40625 C 132.019,381.40625 132.08424,381.40624 132.15625,381.40625 C 132.22825,381.33425 132.30301,381.1345 132.375,381.0625 C 133.383,376.0225 133.45425,370.53799 127.40625,370.25 C 121.57425,371.042 119.90825,368.09051 115.15625,373.5625 C 112.85225,375.0025 108.12325,375.87899 105.53125,375.375 C 101.21125,371.847 97.65725,368.02376 95.28125,363.34375 C 95.42525,363.41575 95.880497,363.70525 96.3125,364.28125 C 96.3845,363.99325 94.415747,361.197 94.34375,361.125 C 93.69575,359.685 91.992253,353.90626 94.65625,353.90625 C 95.52025,354.91425 95.870998,356.7815 96.375,358.4375 C 97.311,359.4455 98.315252,359.825 98.53125,361.625 C 98.67525,361.553 98.671247,361.55026 99.03125,361.40625 C 99.10325,361.55025 99.1875,361.60599 99.1875,361.75 C 99.4035,361.678 99.481,361.68751 99.625,361.6875 C 99.841,361.5435 99.89675,361.269 99.96875,361.125 C 100.11275,361.125 100.27175,361.125 100.34375,361.125 C 100.34375,361.053 100.40625,361.05026 100.40625,360.90625 C 100.33425,360.90625 100.322,360.8845 100.25,360.8125 C 100.034,359.5165 101.84375,356.45074 101.84375,354.21875 C 104.57975,355.58675 103.70525,360.82101 104.28125,363.125 C 105.43325,357.365 109.254,354.69601 108.75,348 C 109.47,348 109.75725,348.14675 112.78125,348.21875 C 112.56525,347.71475 112.57875,347.73499 112.21875,347.375 C 108.61875,346.367 107.959,334.70201 106.375,331.75 C 105.151,330.238 102.55975,328.49576 102.34375,327.34375 C 102.77575,327.34375 103.3425,327.71874 104.0625,327.71875 C 104.2065,327.14275 103.29075,326.27575 103.21875,325.84375 C 106.81875,326.41975 110.84025,328.42 114.65625,329.5 C 120.41625,330.364 125.378,326.55701 127.25,335.125 C 127.25,336.853 126.5515,338.21899 125.6875,339.875 C 125.6875,343.763 129.55225,348.50425 133.65625,349.65625 C 141.93625,350.73625 149.78926,350.09976 157.78125,353.84375 C 165.34125,359.53175 148.7755,358.8055 155.6875,366.4375 C 155.6875,369.6775 154.544,370.12674 158,372.71875 C 158.432,373.00675 166.21874,376.75376 166.21875,374.59375 C 165.85875,374.23375 165.64125,374.00675 165.28125,373.71875 C 161.10525,367.95875 166.8535,370.9735 168.4375,366.4375 C 168.4375,362.6935 165.71149,357.15301 171.6875,362.625 C 174.3515,367.089 171.83,372.63026 179.75,371.40625 C 183.782,369.67825 185.2135,367.67349 186.4375,373.9375 C 190.0375,369.8335 191.05501,364.92751 186.375,361.6875 C 186.375,361.1835 186.37501,360.75399 186.375,360.25 C 190.479,361.33 192.99475,358.95325 194.21875,355.28125 C 198.46675,353.98525 197.81275,358.03151 199.46875,359.6875 C 200.83675,358.5355 200.8315,352.18049 200.6875,350.8125 C 198.9595,345.2685 192.5,348.448 192.5,346 C 194.372,344.632 196.45275,344.56674 198.46875,345.71875 C 198.46875,345.64675 198.53126,345.6345 198.53125,345.5625 C 197.81125,340.8825 196.0345,336.41075 190.5625,339.21875 C 183.8665,338.35475 182.9005,338.23199 180.8125,345 C 174.1165,353.136 159.14849,342.75374 152.8125,340.59375 C 147.1965,337.71375 139.70726,335.39699 144.53125,328.125 C 149.13925,322.509 148.725,322.605 145.125,316.125 C 142.749,311.013 142.87825,310.3545 137.40625,309.5625 C 129.05425,309.4185 120.78275,309.43324 112.71875,308.28125 C 112.57475,308.06525 112.5625,307.97826 112.5625,307.90625 C 115.6585,307.40225 118.404,305.97001 121.5,305.25 C 121.5,305.106 121.5625,305.02849 121.5625,304.8125 C 123.7945,303.8045 128.48949,302.06251 130.9375,302.0625 C 134.9695,299.9025 139.41775,298.18974 143.59375,295.09375 C 144.74575,295.09375 145.63199,297.24999 147,297.25 C 147.72,296.17 147.62375,294.45224 148.34375,293.15625 C 149.92775,292.86825 154.83824,297.46101 154.40625,300.125 C 155.63025,300.557 157.49326,295.39526 157.78125,294.53125 C 157.85325,294.53125 157.9185,294.4375 158.0625,294.4375 C 159.4305,296.7415 160.23499,298.03851 159.875,301.0625 C 160.379,301.2785 163.7745,297.913 164.0625,297.625 C 164.7825,297.625 165.344,297.74324 167,298.03125 C 167.072,298.24725 161.66076,304.81249 164.46875,304.8125 C 168.50075,301.3565 173.6435,300.07199 179.1875,300 C 179.1875,300 179.1875,300.05301 179.1875,300.125 C 177.3875,302.213 177.5965,303.35775 177.8125,306.09375 C 178.9645,310.05375 180.53174,309.27475 183.84375,311.21875 C 185.64375,314.02675 192.14175,315.62326 195.09375,313.03125 C 194.87775,311.01525 189.40551,311.71124 193.4375,307.03125 C 196.1735,302.35125 192.5635,301.84474 190.1875,299.46875 C 190.1875,298.96475 190.2745,298.8505 190.5625,298.5625 C 192.0025,298.3465 195.2135,300.14149 196.4375,301.4375 C 196.0055,304.7495 196.30225,307.4865 200.40625,308.0625 C 204.51025,307.9185 207.09524,308.4015 208.03125,312.9375 C 210.19125,311.7135 211.43751,307.89775 211.4375,305.59375 C 211.1495,303.14575 210.405,302.92901 211.125,300.625 C 211.773,293.209 202.12575,294.81624 198.09375,292.65625 C 198.09375,291.21625 204.4445,292.65624 205.8125,292.65625 C 207.2525,292.29625 208.11025,291.18874 209.40625,290.46875 C 212.57425,290.46875 211.8535,293.93075 213.4375,294.21875 C 214.8055,288.89075 217.70125,283.63701 209.78125,282.125 C 206.68525,278.813 204.3065,278.68775 200.5625,280.34375 C 193.2905,285.95975 182.48099,286.02574 173.625,285.59375 C 173.265,284.00975 173.1345,282.71175 173.0625,281.34375 C 174.2145,281.55975 175.71901,282.64 177.375,283 C 178.239,283 179.742,282.91451 180.75,283.5625 C 180.75,283.4185 180.75,283.15349 180.75,282.9375 C 178.734,281.7855 178.39125,271.89775 178.03125,269.59375 C 177.45525,268.36975 176.08149,265.99851 175.9375,265.0625 C 178.1695,265.9265 178.01925,267.50425 179.53125,268.65625 C 179.67525,268.51225 179.75275,268.38449 179.96875,268.3125 C 180.76075,262.5525 178.7505,257.34899 173.0625,256.125 C 172.9905,255.981 172.96875,255.841 172.96875,255.625 C 174.55275,255.337 176.9335,257.30701 177.4375,256.875 C 177.6535,253.851 175.41825,250.87875 173.90625,248.71875 C 173.90625,247.20675 176.227,244.406 176.875,242.75 C 178.099,241.31 180.76226,241.36676 180.90625,240.71875 C 178.81825,238.48675 178.81575,235.25001 182.34375,235.25 C 184.64775,236.186 185.6675,236.12075 188.1875,234.96875 C 188.1875,234.82475 188.1875,234.68475 188.1875,234.46875 C 184.0115,231.22875 184.73124,228.858 186.53125,224.25 C 188.18725,221.73 191.56975,227.47124 194.59375,226.03125 C 194.59375,225.88725 194.59375,225.75949 194.59375,225.6875 C 191.92975,222.7355 189.60825,209.78125 195.65625,209.78125 C 197.60025,212.08525 197.321,214.59275 199.625,216.96875 C 204.521,220.06475 205.94774,217.39925 210.84375,216.03125 C 212.71575,214.87925 216.04474,207.671 215.46875,206.375 C 215.18075,206.303 214.94425,206.31251 214.65625,206.3125 C 212.71225,207.6805 211.42625,207.9565 208.90625,207.8125 C 207.89825,204.0685 204.88,204.72001 202,204 C 197.608,200.328 200.41501,196.251 204.375,193.875 C 208.695,193.587 209.40625,190.9845 209.40625,187.3125 C 211.27825,186.5925 211.8005,187.242 213.3125,188.25 C 215.0405,185.73 210.9915,180.67925 208.6875,180.03125 C 205.5915,176.93525 202.27275,183.34374 199.96875,183.34375 C 198.81675,180.53575 199.33475,176.35726 202.71875,175.78125 C 202.71875,175.56525 202.71875,175.341 202.71875,175.125 C 202.50275,174.981 202.1535,174.841 201.9375,174.625 C 192.9375,171.169 192.48851,175.50224 188.3125,181.40625 C 188.1685,181.33425 188.019,181.34375 187.875,181.34375 C 186.003,178.67975 188.03975,175.55825 190.34375,174.40625 C 190.05575,172.17425 183.70499,174.12774 182.625,174.34375 C 178.161,176.71975 179.0935,177.14199 177.4375,181.75 C 174.8455,184.054 173.4135,187.60775 176.4375,190.34375 C 182.3415,193.29575 181.55275,203.51175 179.96875,209.34375 C 178.16875,212.29575 176.3,215.32924 174.5,218.28125 C 173.06,221.88125 166.0825,236.34375 163.5625,236.34375 C 161.5465,234.25575 159.74425,232.87475 157.65625,231.21875 C 148.58425,226.82675 140.36225,228.2145 136.90625,218.0625 C 135.68225,217.8465 130.08324,216.53225 132.53125,214.15625 C 134.33125,214.08425 136.19999,214.25124 138,213.53125 C 139.656,212.09125 141.52575,208.84751 141.09375,206.6875 C 141.02175,206.6155 140.947,206.59375 140.875,206.59375 C 139.435,207.31375 138.49975,207.82075 136.84375,208.46875 C 128.92375,209.40475 134.456,204.37925 140,205.53125 C 151.376,210.42725 156.91025,212.57451 165.40625,202.0625 C 165.83825,201.4865 169.30275,196.09375 167.71875,196.09375 C 163.47075,201.63775 155.211,203.14776 148.875,200.84375 C 143.619,199.54775 141.52375,200.25974 136.84375,201.84375 C 132.09175,202.85175 135.7625,197.663 137.5625,197.375 C 140.8025,198.095 144.0385,195.29875 147.0625,194.21875 C 152.3185,193.49875 151.029,195.38074 154.125,197.46875 C 154.197,197.39675 154.27175,197.25 154.34375,197.25 C 154.84775,182.994 146.11124,186.66975 136.03125,186.09375 C 131.85525,181.91775 123.50075,183.28175 119.46875,186.59375 C 109.96475,192.42575 107.4005,197.82175 96.3125,196.09375 C 96.3125,196.16575 96.312497,196.2935 96.3125,196.4375 C 99.6245,199.3175 102.71675,202.07349 107.46875,202.9375 C 107.46875,203.0815 107.326,203.5235 106.75,206.1875 C 106.462,211.8755 109.33525,215.452 107.03125,221.5 C 108.32725,221.428 109.61025,220.125 110.90625,220.125 C 111.98625,223.869 112.9375,227.04275 112.9375,231.21875 C 112.5775,232.58675 112.57475,232.60876 112.71875,232.96875 C 114.15875,232.82475 115.6605,231.4375 116.8125,231.4375 C 117.3885,235.3975 118.763,241.313 114.875,244.625 C 115.019,244.769 115.08425,244.83425 115.15625,244.90625 C 116.81225,244.90625 119.12525,244.409 120.78125,244.625 C 121.28525,246.353 121.799,248.0845 122.375,249.8125 C 109.631,249.8125 104.5715,230.231 101.1875,221.375 C 97.8035,215.471 95.521,212.3785 90.625,208.5625 C 84.649,204.8185 79.670251,202.56075 73.40625,199.96875 C 57.78225,195.57675 48.34475,191.18175 36.96875,180.09375 C 35.24075,178.72575 27.84225,169.3125 26.90625,169.3125 C 26.11425,174.8565 37.546749,188.309 41.21875,192.125 C 43.01875,193.709 43.017749,193.70524 43.59375,194.28125 C 43.52175,194.28125 43.531252,194.3655 43.53125,194.4375 C 39.35525,194.4375 30.192501,190.0295 27.3125,187.4375 C 27.1685,187.3655 26.97825,187.3125 26.90625,187.3125 C 27.05025,190.1925 29.478499,193.0765 31.0625,195.8125 C 30.9905,195.8125 31.0095,195.88725 30.9375,196.03125 C 26.6895,194.87925 15.52275,176.29 13.21875,171.25 C 12.85875,170.674 11.63175,167.95375 11.34375,167.59375 z M 29.28125,247.34375 C 36.707404,247.41285 41.975001,260.13751 39.78125,263.90625 C 35.74925,260.45025 30.428751,257.15123 26.46875,260.03125 C 21.21275,259.02325 22.656251,250.46199 22.65625,250.75 C 24.95575,248.30875 27.201927,247.3244 29.28125,247.34375 z M 42.375,248.0625 C 47.918998,248.9985 53.668,249.86525 59.5,248.28125 C 57.196001,251.73724 52.08775,257.00575 48.34375,259.09375 C 48.34375,261.61374 62.88075,259.10325 64.96875,259.03125 C 62.592747,261.76726 60.009,264.70675 56.625,266.21875 C 56.553002,266.36275 56.40625,266.52175 56.40625,266.59375 C 56.550251,266.73776 56.63725,266.94025 56.78125,267.15625 C 60.453251,267.80424 64.415,268.36675 68.375,267.71875 C 69.815002,267.28676 71.82225,266.37775 73.40625,266.59375 C 72.254251,268.46576 70.45075,271.689 68.21875,272.625 C 68.074749,273.41701 67.29475,273.40625 66.71875,273.40625 C 71.61475,275.85424 76.93825,274.2185 81.90625,272.5625 C 83.418248,271.6985 83.42125,271.6875 83.78125,271.6875 C 83.061247,274.78351 81.77125,280.1945 78.53125,281.5625 C 78.675251,281.5625 78.7405,281.6155 78.8125,281.6875 C 78.812499,281.68749 78.71875,281.78125 78.71875,281.78125 C 79.870748,282.21325 87.51375,280.18475 88.59375,279.96875 C 88.953749,279.89677 94.12775,277.23375 94.34375,277.59375 C 92.471747,282.63374 95.809,282.5685 90.625,286.3125 C 80.545,291.49649 77.5905,291.05475 74.0625,302.71875 C 65.782498,304.73475 61.96925,312.293 56.28125,318.125 C 52.033248,320.86101 49.434,322.1685 44.25,322.3125 C 34.674001,320.72849 31.2785,312.299 31.0625,303.875 C 32.718499,289.11499 45.113,279.05075 46.625,264.21875 C 46.625001,257.45074 44.175,253.9665 42.375,248.0625 z "
     style="fill:#000000;stroke:#000000;stroke-width:0.21600001;stroke-linecap:square;stroke-linejoin:round"
     id="path80" />
  <g
     id="g12" />
  <path
     d="M 429.3,291.492 L 429.3,8.24396 L 218.916,8.24396 L 218.34,507.492 L 219.78,505.908 C 223.092,506.196 216.972,507.276 221.436,507.42 C 289.332,508.932 426.78,448.596 429.3,291.492 z "
     style="fill:#00923f;fill-opacity:1;fill-rule:evenodd;stroke:#000000;stroke-width:0.21600001;stroke-linejoin:round"
     id="path22" />
  <path
     d="M 303.66,33.5159 C 298.26,43.02 295.668,54.972 292.788,65.124 C 292.644,66.204 291.204,71.676 285.588,95.58 C 285.444,95.796 283.86,102.996 283.716,103.068 C 282.132,110.628 280.764,118.116 279.324,125.46 C 278.964,128.412 278.244,131.652 278.532,134.388 C 278.676,134.46 278.892,134.604 279.108,134.676 C 276.444,134.532 273.276,137.124 270.756,137.628 C 263.412,140.868 254.556,142.668 247.068,144.252 C 242.316,145.548 237.06,145.548 232.38,146.412 C 208.188,148.068 185.364,145.332 162.612,136.404 C 162.036,135.756 161.028,135.972 160.596,135.468 C 160.38,134.604 160.164,132.876 159.948,131.796 C 158.22,116.82 152.892,100.044 148.86,85.4999 C 148.716,85.428 148.14,82.98 147.996,82.908 C 144.9,71.892 141.66,60.66 138.42,49.572 C 138.276,49.428 137.988,48.42 137.772,47.8439 C 137.34,45.756 131.292,32.5079 132.012,31.7159 C 132.372,31.7159 132.948,32.436 133.164,32.7239 C 141.588,40.212 154.692,43.02 156.204,55.908 C 156.06,64.116 150.012,72.9 152.46,81.108 C 153.396,79.452 152.892,72.6119 154.476,71.6039 C 157.788,62.6039 165.564,56.556 175.644,60.084 C 186.012,66.348 183.276,77.796 176.508,85.572 C 175.644,87.7319 177.228,90.0359 179.604,89.028 C 180.252,89.028 180.252,89.028 180.324,89.1719 C 180.252,90.324 177.012,91.476 176.22,91.6199 C 170.1,91.332 171.54,87.084 171.612,82.692 C 171.252,78.588 169.812,76.428 165.42,76.212 C 157.86,77.796 156.924,85.9319 157.86,92.0519 C 160.524,102.204 170.1,110.772 180.9,105.516 C 182.628,103.86 184.788,101.556 185.22,98.9639 C 184.932,98.532 184.14,98.316 183.852,98.1719 C 181.044,96.1559 180.324,93.4919 181.98,90.252 C 187.956,83.196 196.524,93.564 189.108,98.316 C 189.108,98.3879 189.108,98.46 189.108,98.532 C 195.588,105.66 205.74,102.348 210.204,94.644 C 213.3,87.3 213.804,77.7239 207.108,72.0359 C 201.924,68.58 196.524,67.428 196.092,74.916 C 196.812,80.3879 200.844,84.0599 194.292,86.796 C 193.068,87.012 191.34,87.444 190.332,87.012 C 190.332,86.868 190.332,86.796 190.332,86.7239 C 196.236,83.8439 191.988,81.108 188.46,78.3719 C 182.628,72.0359 179.604,64.764 186.372,57.564 C 198.396,48.132 211.932,59.436 215.1,72.0359 C 215.1,72.0359 215.172,72.0359 215.244,72.0359 C 214.02,66.348 212.58,61.812 209.412,56.988 C 207.756,54.8279 206.028,52.668 204.66,50.22 C 201.708,42.084 205.956,36.1799 211.284,29.988 C 214.164,26.9639 216.756,24.588 218.052,20.2679 C 218.124,20.2679 218.268,20.2679 218.34,20.2679 C 218.7,20.7 218.988,23.1479 219.204,23.7239 C 223.884,30.4919 230.652,33.7319 232.74,42.3719 C 233.604,50.868 228.06,56.8439 224.028,63.54 C 223.452,65.0519 221.292,71.244 222.156,72.252 C 223.596,69.084 224.316,66.42 226.476,63.1799 C 232.452,55.764 242.748,50.58 251.388,57.636 C 256.212,63.9 255.06,71.028 250.02,76.9319 C 247.068,79.092 240.588,83.2679 246.204,86.004 C 246.348,86.004 246.492,86.004 246.564,86.0759 C 246.852,86.364 246.852,86.436 246.852,86.652 C 243.324,88.1639 239.652,86.436 239.076,82.692 C 239.436,78.5159 244.116,71.1719 236.916,69.588 C 227.124,69.588 224.1,82.6199 225.756,90.0359 C 226.116,91.0439 228.924,98.1 230.58,98.1719 C 234.036,103.572 244.548,102.852 248.436,98.1 C 248.436,98.028 248.436,97.884 248.436,97.7399 C 244.764,94.7159 244.188,91.476 248.148,88.092 C 255.996,85.0679 259.74,95.364 252.468,98.1719 C 252.252,101.844 258.012,104.868 260.892,105.66 C 271.98,106.452 278.892,97.9559 279.468,87.1559 C 279.036,82.6199 278.1,79.5959 275.004,75.924 C 272.7,74.196 270.396,73.2599 267.804,74.772 C 265.428,76.86 264.996,78.66 265.428,81.468 C 265.644,81.468 265.644,81.468 265.716,81.6119 C 265.572,81.684 265.788,84.8519 265.788,84.996 C 264.636,88.7399 261.972,89.748 258.372,89.028 C 257.868,88.812 257.652,88.884 257.58,88.308 C 263.34,86.58 259.596,83.8439 257.796,80.316 C 252.036,72.108 253.692,60.012 264.708,57.636 C 278.028,57.4919 283.14,68.2919 284.22,80.1 C 284.292,80.1 284.364,80.1 284.436,80.1 C 284.868,77.22 284.724,74.8439 284.508,71.748 C 282.06,61.308 276.516,52.308 286.74,43.9559 C 291.492,40.4999 296.388,37.332 301.788,34.092 C 302.076,33.804 302.94,32.9399 303.444,32.9399 C 303.66,33.228 303.66,33.3 303.66,33.5159 z "
     style="fill:#000000;fill-rule:evenodd;stroke:#000000;stroke-width:0.21600001;stroke-linejoin:round"
     id="path436" />
  <path
     d="M 218.268,148.572 L 218.268,516.276"
     style="fill:none;stroke:#000000;stroke-width:0.21600001;stroke-linecap:square;stroke-linejoin:round"
     id="path366" />
  <path
     d="M 175.06849,90.899892 C 176.07649,90.971892 177.80449,90.899892 178.66849,89.963792 C 178.59649,89.891892 178.59649,89.891892 177.51649,89.603792 C 172.47649,86.939792 178.38049,81.395792 180.32449,78.227892 C 183.34849,70.595792 180.82849,61.523892 172.11649,60.227892 C 169.66849,60.155792 161.46049,61.307892 160.88449,63.971892 C 156.78049,65.123892 154.11649,76.643892 153.46849,79.739792 C 153.18049,82.331892 153.10849,84.851792 152.96449,87.227892 C 152.10049,87.731792 150.87649,77.651892 150.80449,77.003892 C 151.02049,70.595792 153.75649,64.403792 154.83649,57.779892 C 155.98849,44.747892 141.08449,41.435892 133.52449,34.379792 C 133.38049,34.883892 136.11649,40.427892 136.33249,41.003892 C 141.08449,54.467892 145.11649,68.507792 148.78849,82.115892 C 151.02049,88.811892 152.38849,96.659892 155.26849,102.92389 C 162.03649,115.30789 175.93249,118.33189 185.36449,106.73989 C 186.22849,105.15589 186.80449,103.71589 187.66849,101.91589 C 188.02849,101.91589 188.02849,101.91589 188.24449,101.98789 C 188.53249,103.85989 192.34849,106.09189 193.86049,107.02789 C 204.66049,111.41989 214.38049,105.51589 217.62049,94.283792 C 217.83649,93.491792 218.26849,89.675892 218.77249,89.315892 C 218.77249,89.387792 218.77249,89.387792 218.84449,89.459892 C 220.06849,96.731792 222.30049,101.55589 228.56449,105.73189 C 234.61249,109.11589 240.37249,108.68389 246.27649,104.93989 C 247.06849,104.21989 247.93249,103.71589 248.79649,102.70789 C 249.01249,102.41989 249.87649,101.05189 250.30849,101.05189 C 251.31649,103.28389 252.61249,105.08389 254.26849,106.95589 C 265.21249,117.53989 278.74849,110.84389 283.71649,97.667892 C 288.90049,77.003892 293.14849,55.331892 301.71649,35.387792 C 301.50049,34.739792 286.88449,44.963792 285.30049,46.331892 C 277.95649,55.403792 284.58049,63.107892 285.66049,72.683892 C 285.66049,74.987892 285.80449,85.067792 284.00449,86.651892 C 283.35649,85.283792 283.64449,81.107892 283.50049,79.091892 C 281.48449,67.499792 275.50849,56.339892 262.04449,59.435892 C 253.69249,63.827792 254.34049,72.611792 258.08449,79.739792 C 260.74849,83.915892 263.48449,85.643892 259.02049,88.235892 C 258.94849,88.307892 259.02049,88.379792 259.02049,88.451892 C 265.50049,89.315892 264.85249,84.203892 264.49249,80.819792 C 264.49249,79.307892 264.34849,79.235892 264.70849,77.075792 C 267.80449,69.587892 274.42849,72.323892 278.02849,78.083892 C 284.43649,91.331892 275.79649,108.61189 260.24449,106.52389 C 259.66849,106.30789 258.01249,105.51589 257.36449,105.51589 C 257.29249,105.44389 257.29249,105.37189 257.22049,105.29989 C 254.77249,104.07589 252.32449,100.97989 251.60449,98.387792 C 250.81249,98.315892 250.09249,98.243892 249.37249,98.243892 C 247.06849,103.06789 237.13249,103.35589 233.24449,101.41189 C 233.10049,101.41189 233.02849,101.41189 232.88449,101.41189 C 232.81249,101.41189 232.81249,101.33989 232.74049,101.26789 C 221.94049,93.275792 221.00449,79.163792 231.22849,69.947792 C 233.53249,68.363892 236.41249,67.571892 239.29249,68.795892 C 243.68449,71.963792 240.73249,77.507792 240.08449,81.899892 C 239.43649,84.563892 242.02849,86.795892 245.05249,86.291792 C 244.98049,86.219892 244.98049,86.147792 244.98049,86.075792 C 240.73249,81.971892 246.85249,78.875892 249.87649,75.851792 C 254.55649,69.011892 255.78049,58.139892 245.55649,55.691892 C 233.02849,53.675892 225.18049,65.483792 222.01249,75.635892 C 221.72449,76.283792 221.72449,77.003892 221.36449,77.507792 C 221.14849,72.179792 220.64449,64.259792 224.74849,59.723792 C 226.83649,56.267792 229.14049,52.955792 230.65249,48.923892 C 233.38849,38.411892 227.19649,34.307892 220.57249,27.179792 C 219.70849,25.955792 218.70049,24.659892 218.05249,23.219892 C 217.90849,23.291792 217.90849,23.291792 217.40449,24.515792 C 213.73249,28.835792 209.26849,33.155792 206.82049,38.123892 C 206.17249,40.067792 204.08449,46.547892 205.59649,47.771892 C 206.53249,51.731792 209.34049,54.827792 211.50049,58.067792 C 212.50849,60.443892 213.87649,62.747892 214.81249,65.123892 C 216.03649,69.299892 216.32449,73.403792 216.10849,77.651892 C 216.03649,77.651892 215.96449,77.651892 215.89249,77.579892 C 215.82049,77.507792 215.74849,77.435892 215.74849,77.363892 C 214.95649,71.747892 209.48449,59.219892 203.58049,57.491792 C 195.08449,52.451892 184.50049,55.619792 183.49249,65.915892 C 183.56449,73.835792 187.66849,77.075792 193.42849,81.827792 C 195.15649,84.635892 192.27649,85.355892 192.20449,86.363892 C 196.38049,86.075792 198.25249,83.771892 196.59649,80.315892 L 195.94849,78.083892 C 194.72449,73.115892 194.07649,68.291792 200.91649,67.859892 C 214.02049,69.299892 216.03649,87.299892 210.13249,96.515792 C 206.60449,100.69189 203.94049,102.92389 198.46849,103.35589 C 193.93249,103.06789 191.34049,101.77189 188.31649,98.747892 C 187.88449,98.747892 187.81249,98.891892 186.22849,99.035792 C 185.50849,100.25989 185.22049,101.55589 184.64449,102.63589 C 180.97249,107.60389 176.94049,108.82789 171.18049,108.17989 C 157.86049,104.14789 150.15649,84.995892 162.90049,75.851792 C 169.30849,73.043792 171.97249,77.579892 172.33249,83.483792 C 172.90849,83.627792 170.82049,89.603792 175.06849,90.899892 z "
     style="fill:#fff500;fill-opacity:1;fill-rule:evenodd;stroke:#000000;stroke-width:0.21600001;stroke-linejoin:round"
     id="path438" />
  <path
     d="M 281.12449,109.04389 C 280.33249,115.09189 278.67649,121.06789 277.74049,126.82789 C 277.38049,126.82789 277.38049,126.82789 275.43649,126.10789 C 259.59649,119.55589 241.95649,117.17989 225.03649,116.24389 C 203.43649,116.02789 180.90049,119.48389 161.02849,128.05189 C 160.88449,128.05189 160.74049,127.97989 160.59649,127.97989 C 159.66049,123.37189 157.14049,115.73989 157.06849,110.84389 C 158.22049,111.05989 159.73249,111.85189 161.10049,112.35589 C 172.47649,115.88389 179.96449,115.23589 188.96449,107.02789 C 189.10849,107.02789 189.25249,107.02789 189.32449,107.02789 C 199.11649,111.20389 205.81249,109.11589 214.74049,103.78789 C 217.47649,101.62789 217.47649,101.62789 218.70049,100.69189 C 219.63649,100.90789 220.86049,101.91589 221.65249,102.56389 C 229.21249,107.17189 235.26049,110.12389 244.40449,108.03589 C 249.94849,106.09189 248.07649,105.01189 252.68449,108.46789 C 260.17249,113.50789 266.72449,113.29189 275.29249,110.98789 C 278.74849,109.61989 280.69249,108.68389 281.12449,108.82789 C 281.12449,108.89989 281.12449,109.04389 281.12449,109.04389 z "
     style="fill:#fff500;fill-opacity:1;fill-rule:evenodd;stroke:#000000;stroke-width:0.21600001;stroke-linejoin:round"
     id="path440" />
  <path
     d="M 277.38049,129.92389 C 277.09249,132.08389 277.09249,132.08389 276.94849,133.30789 C 274.78849,133.23589 269.74849,130.78789 268.45249,130.42789 C 256.35649,126.75589 244.40449,124.16389 231.87649,123.01189 C 231.80449,122.93989 231.80449,122.93989 231.73249,122.86789 C 230.86849,122.93989 230.94049,123.01189 230.65249,122.93989 C 230.65249,122.93989 230.72449,122.86789 230.72449,122.86789 C 229.14049,122.43589 224.53249,123.15589 223.45249,122.57989 C 222.58849,122.57989 221.65249,122.65189 220.78849,122.65189 C 220.64449,122.50789 217.47649,122.57989 217.33249,122.57989 C 217.26049,122.57989 217.26049,122.65189 217.26049,122.65189 C 216.18049,122.65189 216.18049,122.65189 215.82049,122.72389 C 215.82049,122.72389 215.82049,122.65189 215.82049,122.50789 C 215.74849,122.50789 215.60449,122.50789 215.46049,122.50789 C 215.46049,122.57989 215.46049,122.65189 215.46049,122.72389 C 215.24449,122.72389 215.02849,122.72389 214.81249,122.72389 C 214.88449,122.72389 214.88449,122.72389 214.95649,122.65189 C 214.16449,122.50789 210.34849,123.01189 209.77249,123.08389 C 209.77249,123.01189 209.70049,122.93989 209.70049,122.86789 C 209.62849,122.93989 209.55649,123.01189 209.48449,123.08389 C 195.22849,124.52389 182.19649,127.40389 168.80449,131.86789 C 167.72449,132.29989 163.47649,134.24389 161.96449,134.45989 C 161.67649,132.73189 161.17249,130.85989 160.95649,129.05989 C 160.95649,128.98789 161.02849,128.91589 161.10049,128.84389 C 179.38849,121.93189 197.10049,117.53989 216.90049,116.96389 C 237.42049,116.89189 257.72449,119.69989 277.09249,127.61989 C 277.66849,128.05189 277.38049,129.27589 277.38049,129.92389 z "
     style="fill:#fff500;fill-opacity:1;fill-rule:evenodd;stroke:#000000;stroke-width:0.21600001;stroke-linejoin:round"
     id="path442" />
  <path
     d="M 273.85249,134.67589 C 241.16449,149.72389 198.61249,148.21189 165.20449,135.61189 C 165.20449,135.53989 165.20449,135.46789 165.20449,135.32389 C 166.50049,134.89189 168.94849,133.88389 174.49249,131.93989 C 182.41249,129.49189 190.18849,127.69189 198.03649,126.53989 C 211.14049,124.52389 224.24449,124.30789 237.99649,125.67589 C 248.94049,127.18789 259.23649,129.49189 269.96449,132.94789 C 272.26849,133.88389 273.99649,134.45989 273.85249,134.67589 z "
     style="fill:#fff500;fill-opacity:1;fill-rule:evenodd;stroke:#000000;stroke-width:0.21600001;stroke-linejoin:round"
     id="path444" />
  <path
     d="M 255.42049,93.707792 C 254.84449,95.579892 253.69249,96.947792 251.89249,97.019892 C 251.10049,97.739792 248.36449,96.371792 247.86049,95.939792 C 242.74849,88.163792 255.85249,85.139892 255.42049,93.707792 z "
     style="fill:#fff500;fill-opacity:1;fill-rule:evenodd;stroke:#000000;stroke-width:0.21600001;stroke-linejoin:round"
     id="path446" />
  <path
     d="M 190.98049,94.211892 C 188.60449,101.84389 178.30849,95.939792 183.63649,89.963792 C 187.52449,87.371792 191.05249,89.747892 190.98049,94.211892 z "
     style="fill:#fff500;fill-opacity:1;fill-rule:evenodd;stroke:#000000;stroke-width:0.21600001;stroke-linejoin:round"
     id="path448" />
  <path
     d="M 112.86027,405.46785 C 112.06827,402.15585 110.48427,401.57985 107.67627,401.29185 C 107.82027,397.90785 109.18827,397.47585 112.21227,396.17985 C 118.04427,395.74785 113.36427,406.11585 112.86027,405.46785 z "
     style="fill:#fff500;fill-opacity:1;fill-rule:evenodd;stroke:#000000;stroke-width:0.21600001;stroke-linejoin:round"
     id="path516" />
  <path
     d="M 88.884275,401.79585 C 83.700275,400.64385 78.228275,393.51585 86.580275,394.23585 C 90.756275,395.81985 87.948275,397.11585 88.956275,400.49985 C 89.532275,401.36385 89.532275,401.36385 89.676275,401.72385 C 89.316275,401.72385 89.100275,401.72385 88.884275,401.79585 z "
     style="fill:#fff500;fill-opacity:1;fill-rule:evenodd;stroke:#000000;stroke-width:0.21600001;stroke-linejoin:round"
     id="path518" />
  <path
     d="M 130.42827,395.74785 C 127.98027,390.34785 126.25227,393.37185 123.15627,392.86785 C 119.91627,386.96385 129.78027,383.29185 131.36427,390.77985 C 131.36427,390.77985 131.07627,396.25185 130.42827,395.74785 z "
     style="fill:#fff500;fill-opacity:1;fill-rule:evenodd;stroke:#000000;stroke-width:0.21600001;stroke-linejoin:round"
     id="path520" />
  <path
     d="M 131.58027,378.39585 C 129.92427,375.87585 128.62827,377.38785 127.40427,376.37985 C 127.18827,374.43585 125.74827,372.85185 125.60427,371.62785 C 130.64427,370.54785 132.94827,373.06785 131.79627,378.53985 C 131.72427,378.39585 131.65227,378.39585 131.58027,378.39585 z "
     style="fill:#fff500;fill-opacity:1;fill-rule:evenodd;stroke:#000000;stroke-width:0.21600001;stroke-linejoin:round"
     id="path522" />
  <path
     d="M 164.41227,374.43585 C 149.07627,371.41185 159.80427,359.45985 163.76427,368.67585 C 160.81227,371.62785 164.98827,373.06785 164.77227,374.43585 C 164.70027,374.43585 164.55627,374.43585 164.41227,374.43585 z "
     style="fill:#fff500;fill-opacity:1;fill-rule:evenodd;stroke:#000000;stroke-width:0.21600001;stroke-linejoin:round"
     id="path524" />
  <path
     d="M 186.66027,371.62785 C 186.30027,368.02785 183.13227,369.10785 181.04427,369.10785 C 178.16427,365.21985 185.86827,358.37985 188.17227,365.79585 C 188.31627,368.17185 188.17227,369.03585 187.09227,371.41185 C 187.02027,371.48385 186.87627,371.48385 186.66027,371.62785 z "
     style="fill:#fff500;fill-opacity:1;fill-rule:evenodd;stroke:#000000;stroke-width:0.21600001;stroke-linejoin:round"
     id="path526" />
  <path
     d="M 199.33227,357.08385 C 197.60427,354.13185 195.73227,354.34785 192.78027,354.20385 C 191.41227,352.18785 192.56427,348.44385 195.08427,347.86785 C 200.70027,347.86785 200.19627,352.47585 199.62027,357.08385 C 199.40427,357.15585 199.40427,357.15585 199.33227,357.08385 z "
     style="fill:#fff500;fill-opacity:1;fill-rule:evenodd;stroke:#000000;stroke-width:0.21600001;stroke-linejoin:round"
     id="path528" />
  <path
     d="M 192.13227,345.05985 C 192.06027,343.25985 191.48427,341.60385 191.34027,340.23585 C 193.71627,337.85985 198.10827,341.09985 197.53227,344.26785 C 195.37227,344.26785 194.43627,343.47585 192.56427,344.98785 C 192.42027,344.98785 192.27627,344.98785 192.13227,345.05985 z "
     style="fill:#fff500;fill-opacity:1;fill-rule:evenodd;stroke:#000000;stroke-width:0.21600001;stroke-linejoin:round"
     id="path530" />
  <path
     d="M 208.54827,186.29985 C 207.68427,184.06785 205.95627,182.48385 204.08427,182.33985 C 204.08427,179.09985 213.15627,180.97185 212.29227,186.37185 C 210.70827,185.93985 209.48427,186.44385 208.54827,186.29985 z "
     style="fill:#fff500;fill-opacity:1;fill-rule:evenodd;stroke:#000000;stroke-width:0.21600001;stroke-linejoin:round"
     id="path532" />
  <path
     d="M 186.08427,180.61185 C 183.70827,179.96385 181.47627,179.89185 179.24427,180.46785 C 179.24427,175.85985 185.14827,174.20385 188.74827,174.13185 C 188.60427,174.99585 186.94827,176.43585 186.51627,178.09185 C 186.51627,180.53985 186.51627,180.53985 186.37227,180.61185 C 186.30027,180.61185 186.15627,180.61185 186.08427,180.61185 z "
     style="fill:#fff500;fill-opacity:1;fill-rule:evenodd;stroke:#000000;stroke-width:0.21600001;stroke-linejoin:round"
     id="path534" />
  <path
     d="M 197.89227,180.61185 C 195.66027,179.24385 194.00427,178.81185 191.62827,178.66785 C 192.27627,174.34785 197.02827,173.77185 200.55627,175.13985 C 200.55627,175.28385 200.62827,175.35585 200.70027,175.42785 C 198.97227,177.29985 199.18827,178.30785 198.25227,180.61185 C 198.10827,180.61185 197.96427,180.61185 197.89227,180.61185 z "
     style="fill:#fff500;fill-opacity:1;fill-rule:evenodd;stroke:#000000;stroke-width:0.21600001;stroke-linejoin:round"
     id="path536" />
  <path
     d="M 208.54827,215.45985 C 205.23627,215.02785 204.94827,210.27585 207.61227,208.69185 C 209.05227,208.69185 210.34827,208.83585 211.86027,208.54785 C 213.87627,207.75585 213.87627,207.75585 214.23627,207.75585 C 214.23627,210.49185 211.64427,214.95585 208.54827,215.45985 z "
     style="fill:#fff500;fill-opacity:1;fill-rule:evenodd;stroke:#000000;stroke-width:0.21600001;stroke-linejoin:round"
     id="path538" />
  <path
     d="M 189.10827,313.66785 C 181.98027,312.29985 185.00427,306.39585 190.33227,308.41185 C 190.54827,310.06785 191.48427,311.72385 193.28427,312.73185 C 193.42827,313.66785 189.75627,313.66785 189.10827,313.66785 z "
     style="fill:#fff500;fill-opacity:1;fill-rule:evenodd;stroke:#000000;stroke-width:0.21600001;stroke-linejoin:round"
     id="path540" />
  <path
     d="M 208.54827,310.71585 C 206.89227,307.04385 197.96427,307.33185 203.86827,302.86785 C 213.08427,299.41185 209.98827,311.07585 208.54827,310.71585 z "
     style="fill:#fff500;fill-opacity:1;fill-rule:evenodd;stroke:#000000;stroke-width:0.21600001;stroke-linejoin:round"
     id="path542" />
  <path
     d="M 213.30027,292.35585 C 211.71627,290.05185 211.78827,289.54785 209.77227,289.40385 C 209.98827,287.31585 209.84427,285.22785 209.98827,283.57185 C 216.39627,283.57185 213.87627,292.64385 213.30027,292.35585 z "
     style="fill:#fff500;fill-opacity:1;fill-rule:evenodd;stroke:#000000;stroke-width:0.21600001;stroke-linejoin:round"
     id="path544" />
  <path
     d="M 131.07627,213.44385 C 127.54827,207.25185 129.78027,204.01185 133.59627,199.18785 C 134.60427,198.82785 134.46027,197.81985 135.68427,197.45985 C 135.68427,198.39585 130.21227,203.14785 135.97227,203.14785 C 139.71627,202.06785 140.86827,201.05985 144.97227,201.05985 C 151.81227,202.71585 156.70827,204.08385 163.33227,200.77185 C 164.05227,200.19585 165.42027,198.61185 166.35627,198.46785 C 165.42027,203.00385 158.00427,208.47585 153.39627,208.90785 C 147.49227,208.90785 135.90027,200.12385 131.65227,207.17985 C 131.14827,211.71585 138.49227,208.18785 140.07627,207.97185 C 140.07627,207.97185 140.14827,208.04385 140.14827,208.11585 C 137.26827,214.59585 136.26027,211.35585 131.07627,213.44385 z "
     style="fill:#fff500;fill-opacity:1;fill-rule:evenodd;stroke:#000000;stroke-width:0.21600001;stroke-linejoin:round"
     id="path546" />
  <path
     d="M 137.70027,196.30785 C 137.62827,196.23585 137.62827,196.23585 137.12427,196.16385 C 137.19627,195.51585 137.70027,194.86785 137.84427,194.21985 C 137.26827,191.91585 136.40427,189.68385 136.47627,187.52385 C 142.66827,187.30785 153.39627,185.00385 153.03627,194.65185 C 152.60427,194.65185 152.02827,193.78785 152.02827,193.71585 C 147.63627,191.69985 144.90027,193.49985 141.37227,195.65985 C 139.93227,196.30785 139.21227,196.30785 137.70027,196.30785 z "
     style="fill:#fff500;fill-opacity:1;fill-rule:evenodd;stroke:#000000;stroke-width:0.21600001;stroke-linejoin:round"
     id="path548" />
  <g
     style="fill:#ffffff"
     id="g5753">
    <path
       d="M 176.724,349.596 C 176.652,349.596 176.508,349.452 176.436,349.452 C 176.436,349.308 176.508,349.236 176.508,349.164 C 181.98,347.364 180.54,343.764 183.852,340.524 C 188.604,338.364 191.34,339.228 191.34,344.772 C 191.196,345.06 191.124,345.276 191.124,345.564 C 190.62,345.564 189.612,345.276 188.82,345.276 C 184.284,346.572 181.404,349.164 176.724,349.596 z "
       style="fill:#ffffff;fill-rule:evenodd;stroke:#000000;stroke-width:0.21600001;stroke-linejoin:round"
       id="path552" />
    <g
       transform="translate(0,-4.2833396e-4)"
       style="fill:#ffffff"
       id="g5701">
      <path
         d="M 128.7,196.236 C 127.548,196.02 126.108,195.516 126.108,194.364 C 126.756,193.932 127.476,192.996 128.34,193.212 C 128.484,193.716 128.484,193.716 128.484,193.932 C 128.34,194.004 128.052,194.22 127.908,194.364 C 127.908,194.58 127.908,194.724 127.908,194.796 C 129.708,195.228 130.716,194.436 131.22,192.636 C 132.012,192.852 132.012,192.852 132.228,192.996 C 132.228,194.724 130.284,196.02 128.7,196.236 z "
         style="fill:#ffffff;fill-rule:evenodd;stroke:#000000;stroke-width:0.21600001;stroke-linejoin:round"
         id="path736" />
      <g
         style="fill:#ffffff"
         id="g5651">
        <path
           d="M 177.588,370.692 C 173.412,369.324 173.916,366.444 173.268,363.204 C 171.468,360.756 166.788,356.508 166.068,361.98 C 167.508,364.068 168.588,369.324 164.34,368.676 C 161.964,365.22 159.948,362.916 156.276,365.652 C 156.132,365.652 156.06,365.652 155.916,365.652 C 152.388,358.884 163.476,360.684 160.74,354.708 C 153.036,347.868 141.3,350.1 132.3,348.228 C 129.42,346.86 126.972,342.972 126.756,340.164 C 129.06,335.484 128.844,332.244 125.1,328.5 C 123.084,327.636 122.508,328.068 121.716,326.34 C 121.572,326.34 121.5,326.412 121.428,326.628 C 121.5,326.916 121.572,327.276 121.572,327.708 C 121.5,327.708 121.428,327.78 121.284,327.78 C 120.564,327.132 120.276,326.7 120.06,326.196 C 119.844,326.124 119.7,326.124 119.484,325.98 C 119.484,326.556 120.348,327.924 120.276,328.14 C 118.836,327.924 118.044,326.34 117.396,325.404 C 117.18,325.404 116.964,325.404 116.676,325.476 C 118.116,327.636 118.908,328.284 118.548,328.716 C 116.388,328.068 115.452,326.556 114.372,325.044 C 113.796,324.972 113.652,324.828 113.292,324.9 C 113.364,324.972 116.028,328.428 115.668,328.572 C 112.788,327.708 111.996,325.908 110.844,323.82 C 110.556,323.676 110.412,323.604 110.124,323.604 C 110.124,324.396 110.844,325.836 111.348,326.772 C 108.828,326.772 107.748,322.092 106.596,322.452 C 106.956,323.1 106.956,323.1 107.82,325.764 C 107.82,325.836 107.748,325.836 107.748,325.836 C 105.948,324.612 105.228,322.092 104.004,320.724 C 104.004,321.804 105.084,323.388 105.372,325.044 C 105.228,325.044 105.156,325.044 105.156,325.188 C 103.572,323.82 103.572,321.516 102.852,320.22 C 102.708,320.22 102.636,320.22 102.42,320.292 C 102.42,320.724 103.212,323.82 103.068,323.964 C 102.852,323.964 102.708,323.964 102.564,323.964 C 101.844,322.596 101.412,320.292 100.836,319.644 C 100.836,321.012 101.412,322.308 101.7,324.036 C 101.556,324.036 101.484,324.108 101.484,324.108 C 100.26,323.388 99.684,322.308 99.612,321.228 C 98.1,319.932 97.38,319.068 97.38,317.34 C 98.028,316.332 95.004,313.74 97.812,312.444 C 98.1,313.236 98.892,315.252 99.9,315.756 C 100.26,314.748 98.1,313.308 99.468,311.22 C 99.612,311.22 99.684,311.22 99.9,311.364 C 100.116,312.732 100.332,313.956 101.34,315.54 C 101.34,314.028 99.972,310.356 102.276,310.356 C 102.132,312.732 102.132,312.948 103.212,315.54 C 103.5,315.612 103.5,315.612 103.716,315.54 C 102.708,313.308 102.708,310.14 105.228,309.636 C 104.868,311.076 103.716,315.396 106.38,316.044 C 104.94,313.38 105.516,312.084 106.812,309.708 C 107.172,309.636 107.46,309.564 107.892,309.564 C 107.892,309.708 107.892,309.852 107.964,310.14 C 106.596,311.508 107.676,314.46 108.612,316.044 C 109.116,313.092 107.82,312.156 109.476,309.564 C 109.764,309.564 109.836,309.42 110.412,309.636 C 110.412,312.3 108.756,312.876 111.132,315.972 C 111.492,314.388 109.836,310.932 112.356,310.284 C 112.5,311.58 113.148,315.612 114.66,316.548 C 114.66,313.884 112.572,313.452 113.868,310.212 C 114.372,310.212 114.66,309.996 115.236,310.284 C 115.236,311.94 115.308,313.452 116.676,314.892 C 116.676,312.732 115.452,310.5 118.548,310.068 C 118.116,311.508 117.468,312.588 118.332,314.172 C 118.908,313.524 118.26,311.94 119.34,311.436 C 119.412,310.932 119.7,310.932 119.772,310.5 C 120.348,310.212 120.348,310.212 120.708,310.212 C 120.996,310.788 119.124,313.02 120.78,313.812 C 120.852,312.3 121.14,310.5 123.012,310.5 C 122.94,311.58 121.716,313.308 123.156,313.74 C 123.156,312.156 124.236,310.572 125.604,310.356 C 125.46,311.004 124.524,312.876 124.884,313.524 C 124.956,313.452 125.1,313.452 125.172,313.452 C 125.316,312.444 126.18,310.284 127.548,310.572 C 127.476,311.364 127.044,312.012 127.26,312.948 C 127.404,312.948 127.476,313.02 127.62,313.092 C 130.284,309.42 130.5,310.716 135.756,310.644 C 140.436,311.436 140.796,310.644 143.244,314.892 C 147.492,323.82 147.636,321.012 142.812,328.572 C 140.508,334.692 141.948,335.988 147.492,339.228 C 156.636,342.756 167.652,349.596 177.588,350.604 C 182.484,349.884 187.956,343.404 192.924,347.58 C 192.924,350.172 189.324,352.404 192.924,355.572 C 192.636,358.596 188.892,360.396 186.3,358.956 C 184.716,355.356 182.34,355.86 179.172,356.292 C 176.004,356.004 173.124,355.212 170.46,354.132 C 170.388,354.204 170.388,354.348 170.388,354.42 C 173.124,356.796 180.036,357.012 184.14,357.948 C 187.668,360.9 184.14,361.692 182.052,362.7 C 180.036,364.14 177.804,367.092 180.18,369.468 C 180.18,369.54 180.18,369.612 180.18,369.828 C 179.46,370.548 178.524,370.692 177.588,370.692 z "
           style="fill:#ffffff;fill-rule:evenodd;stroke:#000000;stroke-width:0.21600001;stroke-linejoin:round"
           id="path550" />
        <path
           d="M 105.444,401.58 C 97.308,399.06 104.076,393.012 101.916,388.764 C 98.748,386.532 96.876,384.084 94.5,388.404 C 94.5,390.636 95.076,396.612 91.116,396.612 C 87.948,392.148 86.292,393.588 82.404,393.588 C 79.812,390.276 82.836,386.1 86.076,384.876 C 98.172,383.364 89.676,373.284 85.572,367.668 C 81.972,363.564 77.724,361.62 74.124,358.164 C 67.428,345.636 73.332,349.668 80.244,341.604 C 84.78,333.756 75.42,325.044 74.772,317.124 C 74.988,315.54 75.132,314.676 75.132,314.316 C 73.908,313.38 71.892,313.812 70.74,314.028 C 60.948,322.308 52.74,332.388 38.772,327.06 C 25.38,319.644 24.156,308.844 27.756,295.452 C 30.348,290.412 33.012,285.012 35.676,279.972 C 37.98,272.988 36.324,262.836 28.332,260.604 C 28.404,260.46 28.404,260.388 28.548,260.172 C 35.46,259.164 39.636,263.916 40.068,270.684 C 41.724,270.972 43.596,268.74 45.108,268.524 C 40.5,286.74 23.004,296.676 33.588,316.764 C 40.356,326.196 49.86,324.54 58.212,318.132 C 64.044,311.652 66.564,305.604 75.636,303.876 C 77.508,297.108 78.66,293.148 85.212,289.908 C 87.588,289.044 90.972,286.668 92.988,286.308 C 92.772,287.1 91.836,288.252 92.124,289.188 C 94.14,289.188 101.988,284.148 103.644,282.276 C 103.788,282.276 103.86,282.276 104.076,282.276 C 103.716,284.364 102.708,286.668 102.564,288.684 C 104.652,287.964 112.572,282.06 113.436,282.204 C 113.508,283.644 113.508,286.236 113.724,286.812 C 114.516,286.236 120.852,280.26 120.852,280.26 C 120.852,280.692 120.78,280.62 121.284,281.124 C 124.02,278.676 126.54,277.164 127.62,273.42 C 129.276,273.42 131.58,274.644 133.38,273.708 C 131.22,272.556 125.388,273.708 126.684,269.244 C 126.684,269.172 126.612,269.172 126.612,269.1 C 126.54,269.172 126.396,269.172 126.252,269.244 C 125.244,271.692 122.004,271.98 119.7,271.764 C 119.628,271.692 119.484,271.548 119.484,271.476 C 120.06,270.828 122.94,267.948 122.652,267.372 C 122.58,267.372 122.436,267.372 122.364,267.372 C 121.428,268.452 119.772,270.612 118.476,271.044 C 118.044,268.38 117.972,268.236 119.196,266.22 C 118.404,266.22 116.244,267.876 115.668,268.092 C 114.156,268.38 112.572,268.524 111.132,268.524 C 111.348,268.02 115.236,263.844 116.388,263.772 C 116.244,263.628 116.244,263.484 116.244,263.34 C 113.94,263.34 112.86,267.012 110.556,267.444 C 110.7,264.564 111.996,262.548 113.724,260.604 C 113.508,260.604 113.436,260.532 113.364,260.532 C 109.836,264.132 106.884,264.06 102.636,262.692 C 102.636,262.548 102.636,262.404 102.636,262.332 C 106.02,261.036 106.884,258.876 109.476,256.788 C 110.124,256.5 110.124,256.5 110.196,256.356 C 110.196,256.356 110.124,256.284 110.124,256.14 C 107.244,256.572 105.444,261.036 101.844,261.54 C 102.42,258.588 103.068,256.14 105.66,254.628 C 105.66,254.556 105.66,254.484 105.66,254.412 C 103.572,255.42 99.036,255.924 96.948,256.068 C 96.948,254.7 100.98,252.756 102.276,252.18 C 102.276,252.108 102.276,251.964 102.276,251.82 C 100.044,252.252 98.46,253.476 96.732,254.7 C 96.732,249.948 102.132,249.804 105.66,250.164 C 105.804,250.092 105.804,250.02 105.876,250.02 C 100.404,248.076 96.804,250.884 91.404,249.588 C 91.332,249.444 91.332,249.228 91.332,249.156 C 92.7,248.724 95.94,247.716 96.3,246.204 C 94.932,246.204 92.556,248.076 90.468,248.22 C 91.188,244.62 92.484,243.54 96.012,242.892 C 96.012,242.676 96.156,242.604 96.156,242.46 C 91.332,242.892 89.748,243.9 84.996,242.244 C 84.996,242.1 84.996,242.028 84.924,241.812 C 86.22,241.596 92.196,239.292 92.772,238.284 C 92.124,237.492 85.428,240.732 84.78,240.948 C 85.716,237.06 87.012,235.98 91.404,235.98 C 97.38,242.532 100.62,246.276 109.476,249.228 C 112.86,249.948 116.1,250.524 119.844,250.956 C 126.036,251.244 133.884,250.524 136.476,257.364 C 137.268,253.62 132.084,250.74 129.348,250.02 C 126.972,249.876 126.972,249.876 124.092,249.876 C 121.788,247.212 122.22,243.54 123.876,240.948 C 124.74,239.076 124.74,239.076 124.668,238.932 C 122.076,242.028 121.716,242.316 118.26,243.468 C 118.26,243.396 118.26,243.18 118.26,243.108 C 120.276,240.732 121.716,238.572 121.5,235.26 C 119.844,238.5 120.42,240.156 117.396,243.18 C 117.396,242.172 118.116,241.164 118.476,240.156 C 119.412,234.468 117.036,230.22 118.332,224.964 C 118.26,224.532 118.116,224.028 118.044,223.596 C 117.54,223.812 116.604,228.924 115.308,230.22 C 115.452,229.284 115.452,229.284 115.812,227.772 C 115.812,225.18 114.732,222.948 116.028,220.572 C 115.812,220.572 115.74,220.572 115.668,220.572 C 114.804,222.66 114.804,222.66 114.66,223.38 C 114.804,224.532 115.668,229.716 114.588,230.58 C 114.372,225.108 110.052,218.556 112.932,214.452 C 112.932,214.38 112.86,214.236 112.86,214.092 C 110.196,214.668 112.068,219.132 108.9,219.708 C 109.836,213.588 106.956,208.62 108.396,203.004 C 108.756,202.572 110.268,201.204 110.412,200.772 C 110.196,200.628 110.196,200.628 109.836,200.628 C 106.812,202.644 99.972,200.34 99.18,197.532 C 109.692,197.028 113.436,191.988 121.932,186.66 C 124.524,185.58 134.532,182.916 135.468,187.452 C 135.396,187.524 135.324,187.524 135.252,187.596 C 135.252,187.596 136.764,193.86 136.62,194.364 C 135.324,194.364 133.956,192.996 133.164,192.42 C 126.828,189.396 125.316,196.02 120.06,196.884 C 120.06,197.1 120.06,197.388 120.06,197.676 C 125.172,196.524 124.668,197.388 129.492,198.468 C 131.148,198.468 132.516,197.388 134.028,197.532 C 128.484,203.94 125.316,209.628 131.868,217.404 C 133.164,218.412 134.172,218.772 136.044,219.06 C 139.068,227.988 147.996,228.78 156.204,231.516 C 158.436,232.884 160.524,234.684 162.684,236.772 C 162.252,237.492 156.06,233.532 155.772,233.244 C 152.244,232.524 150.228,231.732 147.204,230.292 C 147.204,230.364 147.204,230.508 147.204,230.652 C 149.724,232.596 152.1,232.884 155.556,233.676 C 158.436,235.188 160.236,237.492 164.196,237.924 C 164.7,238.14 165.132,238.428 165.636,238.644 C 165.492,238.788 165.492,238.86 165.492,239.004 C 163.332,239.076 157.5,238.788 156.852,236.268 C 155.772,235.548 155.772,235.548 155.556,235.404 C 157.428,240.372 159.876,239.508 164.772,240.156 C 167.076,242.748 168.156,244.908 172.188,245.772 C 172.188,245.772 172.188,245.844 172.26,245.844 C 169.452,248.652 163.116,242.172 162.972,242.244 C 165.78,245.484 167.436,247.5 172.26,246.636 C 171.684,248.292 168.516,248.436 167.22,248.436 C 163.62,247.212 159.372,240.588 156.276,241.164 C 156.42,241.236 156.492,241.38 156.636,241.524 C 162.612,243.828 163.476,251.388 170.892,248.868 C 172.476,248.868 175.5,253.188 175.788,254.988 C 175.716,255.06 171.612,254.268 171.18,254.196 C 169.524,252.756 168.876,251.82 168.156,250.164 C 168.012,250.308 168.012,250.308 167.652,250.164 C 168.228,258.156 179.604,256.86 179.604,265.716 C 179.532,265.716 179.46,265.788 179.46,265.788 C 178.74,264.996 178.596,264.06 178.236,263.196 C 174.564,257.22 167.436,258.156 166.572,251.316 C 166.572,251.316 166.5,251.316 166.356,251.388 C 166.14,257.94 172.476,257.652 176.508,261.612 C 178.02,264.06 178.02,264.06 178.308,264.852 C 178.308,264.996 178.308,265.068 178.308,265.14 C 177.444,265.14 171.468,262.332 170.748,261.9 C 169.956,261.036 168.876,259.092 168.516,259.02 C 168.66,260.964 169.884,262.332 171.612,263.7 C 178.524,266.724 177.084,272.196 178.092,279.036 C 178.02,279.108 178.02,279.108 177.876,279.252 C 175.428,275.796 175.284,271.476 173.268,267.948 C 170.892,265.428 166.86,264.132 165.132,261.396 C 164.916,261.396 164.916,261.396 164.772,261.54 C 166.212,264.06 170.028,265.5 172.332,268.02 C 174.996,272.34 174.78,277.74 178.38,281.628 C 178.38,281.7 178.38,281.844 178.38,281.988 C 172.188,281.988 172.836,276.588 171.18,272.556 C 169.092,268.956 166.212,267.588 164.484,264.708 C 164.412,264.708 164.412,264.708 164.34,264.78 C 164.772,266.076 164.916,266.724 166.068,267.948 C 172.188,271.764 171.396,280.332 172.764,286.956 C 172.692,286.956 172.692,287.1 172.62,287.1 C 167.796,282.996 168.156,276.228 163.476,272.556 C 163.404,272.556 163.404,272.556 163.332,272.628 C 163.62,273.564 165.78,276.012 166.644,277.956 C 168.588,284.004 168.804,284.004 173.412,288.252 C 173.412,288.252 173.268,288.252 173.268,288.324 C 166.068,288.036 164.772,285.948 162.54,279.396 C 162.54,278.532 162.54,277.668 162.54,276.948 C 162.468,276.948 162.252,276.948 162.252,276.948 C 160.164,282.276 166.86,286.884 164.7,293.94 C 164.34,294.516 163.116,297.468 162.108,297.612 C 163.548,291.42 162.18,287.604 157.932,282.78 C 157.932,282.996 157.86,283.14 157.788,283.284 C 159.732,286.38 163.908,294.516 160.884,298.332 C 160.524,296.172 160.524,296.172 160.092,294.876 C 158.292,291.564 156.06,290.916 156.204,287.244 C 154.548,288.036 156.276,291.852 156.924,293.076 C 156.996,294.084 156.636,295.452 156.06,296.748 C 155.916,296.748 155.772,296.748 155.7,296.82 C 155.34,293.292 153.396,291.276 152.748,288.252 C 152.604,290.268 152.46,291.564 153.972,293.292 C 154.26,294.084 154.908,295.164 154.764,296.244 C 154.62,296.244 154.548,296.244 154.404,296.244 C 151.884,293.22 147.276,292.86 149.364,289.044 C 149.364,288.972 149.364,288.9 149.364,288.756 C 147.42,290.34 146.844,292.572 146.268,294.66 C 146.124,294.66 146.052,294.66 145.98,294.66 C 144.972,293.22 144.54,292.284 144.18,290.844 C 144.324,289.62 144.612,289.404 144.54,289.188 C 142.452,290.772 144.972,293.076 144.684,294.372 C 141.66,292.788 138.78,291.996 141.732,288.9 C 138.492,288.756 138.996,291.42 137.7,292.788 C 136.62,291.78 136.692,290.988 136.476,289.836 C 136.404,289.836 136.26,289.836 136.188,289.836 C 136.188,290.34 136.98,292.572 136.98,292.788 C 134.46,292.788 134.172,290.34 134.028,288.756 C 133.02,289.476 131.724,290.052 131.292,291.204 C 129.06,291.348 127.62,287.676 127.404,286.308 C 126.18,288.756 129.492,291.204 131.22,292.788 C 131.58,292.572 132.228,291.204 132.66,290.628 C 132.804,290.628 133.02,290.628 133.164,290.628 C 134.532,293.148 136.764,293.94 139.716,294.156 C 139.716,293.292 138.564,291.78 139.716,291.42 C 140.076,292.572 140.796,293.652 142.308,294.084 C 140.148,298.332 137.196,294.66 135.396,293.796 C 135.396,294.66 135.54,295.74 136.692,296.316 C 136.692,296.46 136.764,296.676 136.764,296.82 C 134.46,299.124 128.124,296.028 126.252,296.388 C 127.188,298.332 133.452,298.98 135.396,298.476 C 134.892,299.484 133.452,299.484 132.66,299.412 C 132.156,299.772 131.868,300.204 131.292,300.204 C 131.22,300.132 131.22,300.06 131.148,299.988 C 129.42,301.716 127.26,298.692 126.612,297.9 C 126.612,299.7 127.764,300.204 128.052,301.356 C 126.252,302.436 124.236,299.484 123.372,298.764 C 123.372,300.132 124.092,300.924 125.388,302.004 C 125.316,302.004 125.316,302.22 125.316,302.292 C 121.788,303.732 120.636,301.86 118.836,300.06 C 118.98,301.356 119.772,302.292 121.068,303.156 C 121.068,303.228 121.068,303.3 121.068,303.444 C 117.972,304.668 117.324,303.228 114.804,302.652 C 114.804,304.02 117.468,304.02 118.044,304.74 C 115.74,307.116 112.212,303.228 111.204,303.372 C 111.996,304.236 113.22,305.46 114.66,305.964 C 113.436,307.908 109.62,304.74 108.9,304.092 C 108.9,304.092 108.828,304.092 108.756,304.092 C 109.044,304.812 109.98,305.604 110.052,306.396 C 107.676,308.772 104.292,306.396 103.068,304.452 C 102.78,306.108 104.436,306.396 105.156,307.692 C 104.724,308.34 99.252,307.692 98.892,306.828 C 97.668,306.468 97.524,305.46 96.948,305.388 C 96.948,306.9 98.964,307.98 100.332,308.7 C 100.62,310.212 90.972,307.764 91.62,311.436 C 92.916,310.14 94.428,309.348 96.444,310.356 C 96.444,310.5 96.444,310.644 96.444,310.788 C 94.068,312.012 90.9,312.588 91.836,316.26 C 91.836,313.524 92.484,312.948 95.004,312.876 C 95.22,312.948 95.22,313.38 95.22,313.812 C 92.772,316.764 93.06,318.276 94.284,321.804 C 94.644,321.66 92.7,316.116 95.22,316.548 C 96.444,320.58 93.636,322.308 98.028,325.692 C 98.316,326.268 98.676,326.844 98.964,327.492 C 99.036,327.492 99.108,327.564 99.18,327.564 C 97.956,324.396 95.868,323.82 96.66,320.58 C 96.732,320.58 96.804,320.58 96.948,320.58 C 97.524,321.372 98.172,322.164 98.532,323.388 C 98.964,323.532 101.34,325.764 101.268,326.34 C 100.62,326.34 100.476,326.196 100.116,326.34 C 102.204,329.292 105.948,332.1 106.38,335.988 C 106.308,335.988 106.236,335.988 106.236,336.06 C 103.86,333.972 103.14,332.172 101.7,330.3 C 101.484,333.108 104.58,335.34 106.38,337.644 C 106.74,338.148 110.124,346.86 110.124,346.86 C 107.82,346.5 105.66,342.468 105.372,340.668 C 105.228,340.812 105.084,340.812 104.94,340.884 C 104.94,343.476 107.172,346.788 107.748,349.884 C 107.748,351.252 106.956,356.292 106.02,356.796 C 105.66,353.916 106.38,352.476 105.228,349.812 C 104.076,348.444 104.22,347.292 104.076,345.924 C 104.076,345.924 104.004,345.852 104.004,345.852 C 102.924,346.86 104.652,350.532 105.084,351.612 C 105.444,353.34 105.444,355.428 105.084,357.516 C 105.084,357.516 103.212,353.7 102.924,353.268 C 99.828,350.964 100.26,351.684 100.044,348.516 C 99.972,348.516 99.9,348.516 99.828,348.516 C 98.604,350.604 99.828,350.964 100.62,353.052 C 101.052,355.356 100.764,357.012 99.612,359.1 C 99.54,359.244 99.396,359.244 99.252,359.244 C 99.18,357.084 98.316,355.068 98.46,353.052 C 98.316,353.124 98.244,353.124 98.172,353.124 C 97.812,354.636 98.532,357.012 98.46,358.884 C 98.316,358.884 98.244,358.884 98.172,358.884 C 96.444,356.148 96.948,352.044 93.42,352.476 C 87.948,359.964 99.252,372.132 105.156,376.236 C 109.476,377.46 114.804,375.3 117.9,372.276 C 122.652,369.108 127.62,373.068 125.892,378.756 C 125.172,379.908 124.74,380.196 124.236,380.916 C 120.564,380.484 117.18,381.06 113.796,380.628 C 112.716,380.268 111.204,379.548 110.484,379.476 C 110.484,379.476 110.484,379.548 110.412,379.548 C 114.66,382.356 118.116,382.068 123.372,381.924 C 124.812,382.068 127.548,383.94 127.548,385.956 C 127.188,386.172 124.812,386.388 124.236,386.532 C 120.204,388.908 121.068,389.7 122.364,393.588 C 120.78,394.812 117.036,395.1 116.1,393.3 C 115.524,386.604 108.108,389.412 105.876,383.58 C 105.588,383.652 105.372,383.652 105.084,383.652 C 105.588,389.124 113.364,387.612 114.732,392.508 C 114.66,395.244 114.516,395.388 111.996,395.388 C 108.9,396.324 106.884,398.052 106.884,401.364 C 106.524,401.724 105.588,401.58 105.444,401.58 z "
           style="fill:#ffffff;fill-opacity:1;fill-rule:evenodd;stroke:#000000;stroke-width:0.21600001;stroke-linejoin:round"
           id="path554" />
        <path
           d="M 174.42,245.34 C 174.42,245.196 174.42,245.052 174.42,244.98 C 174.348,244.908 174.132,244.908 174.132,244.836 C 174.42,242.676 176.004,240.588 177.444,239.076 C 176.868,237.06 177.372,236.268 178.38,234.612 C 178.236,234.612 178.164,234.468 178.02,234.468 C 177.084,236.34 176.868,236.7 176.94,239.004 C 175.284,240.588 173.772,242.892 172.548,244.764 C 170.388,244.764 166.14,241.236 166.14,239.508 C 166.356,239.436 168.444,239.22 168.588,238.5 C 166.86,238.5 165.852,237.852 164.772,237.132 C 164.772,237.06 164.772,236.988 164.772,236.916 C 169.02,233.1 173.412,224.532 174.924,219.204 C 177.228,215.316 178.74,213.084 180.612,209.772 C 182.844,204.012 181.692,196.596 180.18,191.124 C 177.444,190.98 176.004,188.676 175.572,186.588 C 177.156,176.292 194.22,182.268 188.316,187.452 C 187.74,190.908 187.812,194.364 188.172,197.964 C 188.316,197.964 188.388,197.964 188.604,197.964 C 188.604,192.996 188.892,190.62 190.332,186.012 C 190.98,182.844 188.316,182.34 191.124,180.54 C 194.148,180.108 200.34,181.62 198.54,185.868 C 198.252,190.548 194.148,192.852 193.644,196.668 C 195.804,195.156 198.252,191.124 199.836,188.964 C 199.692,187.452 199.404,186.444 199.908,185.148 C 205.956,179.1 211.212,189.756 205.812,192.636 C 199.476,193.356 194.868,203.508 202.284,205.236 C 203.94,205.308 207.252,205.38 207.252,208.116 C 205.236,210.348 204.084,210.924 205.308,214.092 C 205.668,214.596 206.532,215.316 206.532,216.036 C 203.436,219.42 197.46,215.028 198.324,210.78 C 194.22,205.884 191.484,211.212 190.692,215.1 C 190.692,217.908 190.764,220.572 191.988,223.38 C 191.988,223.596 191.988,223.74 191.988,223.812 C 187.74,223.812 187.812,207.828 193.932,207.828 C 193.932,207.828 193.932,207.756 194.004,207.756 C 188.172,206.316 188.028,217.476 189.108,220.644 C 189.684,221.94 190.692,223.02 191.412,224.532 C 189.396,224.532 187.884,220.932 186.012,223.164 C 184.284,226.404 182.34,231.228 186.012,234.252 C 186.012,234.252 186.012,234.324 186.012,234.396 C 180.396,233.676 182.7,223.596 185.868,221.724 C 182.628,221.724 181.404,229.284 182.34,232.308 C 183.636,234.18 187.092,235.116 183.348,234.9 C 179.748,231.444 178.02,236.124 178.596,239.508 C 179.028,240.228 179.028,240.228 179.028,240.444 C 178.956,240.444 178.956,240.588 178.812,240.588 C 176.796,239.724 175.356,244.116 174.78,245.268 C 174.636,245.268 174.564,245.268 174.42,245.34 z "
           style="fill:#ffffff;fill-rule:evenodd;stroke:#000000;stroke-width:0.21600001;stroke-linejoin:round"
           id="path556" />
        <path
           d="M 93.708,286.956 C 94.284,285.516 94.644,284.796 95.004,283.5 C 95.94,275.796 95.004,272.34 104.508,272.34 C 104.508,272.34 104.508,272.412 104.58,272.412 C 100.62,276.588 98.604,281.268 95.436,286.02 C 94.932,286.452 94.356,286.812 93.708,286.956 z "
           style="fill:#ffffff;fill-rule:evenodd;stroke:#000000;stroke-width:0.21600001;stroke-linejoin:round"
           id="path648" />
        <path
           d="M 104.724,285.948 C 105.084,282.636 105.804,277.164 109.332,275.796 C 110.916,275.652 114.66,274.356 116.028,274.644 C 113.148,278.172 108.684,283.716 104.724,285.948 z "
           style="fill:#ffffff;fill-rule:evenodd;stroke:#000000;stroke-width:0.21600001;stroke-linejoin:round"
           id="path650" />
        <path
           d="M 96.444,285.804 C 96.588,285.084 105.084,270.324 106.452,272.7 C 105.804,274.068 105.372,274.644 105.228,274.86 C 105.516,275.292 106.308,275.436 106.596,275.796 C 104.004,280.764 101.484,283.212 96.444,285.804 z "
           style="fill:#ffffff;fill-rule:evenodd;stroke:#000000;stroke-width:0.21600001;stroke-linejoin:round"
           id="path652" />
        <path
           d="M 114.804,285.012 C 114.804,279.972 116.388,279.252 118.548,274.932 C 118.764,274.932 118.908,274.932 119.124,274.932 C 121.284,279.468 118.764,281.988 114.804,285.012 z "
           style="fill:#ffffff;fill-rule:evenodd;stroke:#000000;stroke-width:0.21600001;stroke-linejoin:round"
           id="path654" />
        <path
           d="M 109.26,283.5 C 109.476,282.636 116.388,274.5 117.54,274.356 C 117.324,278.1 112.212,281.628 109.26,283.5 z "
           style="fill:#ffffff;fill-rule:evenodd;stroke:#000000;stroke-width:0.21600001;stroke-linejoin:round"
           id="path656" />
        <path
           d="M 17.604,282.924 C 11.7,281.772 11.052,278.172 10.908,272.916 C 11.052,272.916 11.196,272.916 11.268,272.916 C 16.236,280.764 21.924,275.364 20.484,267.732 C 18.396,261.18 15.012,254.196 18.036,247.644 C 24.156,239.22 34.02,239.58 40.932,247.788 C 43.02,251.532 44.676,255.78 45.54,260.388 C 45.828,265.428 46.26,267.804 41.004,269.172 C 40.644,266.652 41.292,263.7 41.292,261.108 C 40.284,253.692 36.612,247.212 29.052,245.916 C 22.788,246.276 20.484,249.372 21.348,255.78 C 23.796,262.692 29.916,265.644 29.916,274.068 C 29.052,277.164 29.052,277.164 28.98,277.236 C 28.116,275.652 27.324,274.644 26.388,273.42 C 26.316,273.42 26.244,273.42 26.1,273.42 C 26.1,278.892 23.508,282.636 17.604,282.924 z "
           style="fill:#ffffff;fill-rule:evenodd;stroke:#000000;stroke-width:0.21600001;stroke-linejoin:round"
           id="path658" />
        <path
           d="M 83.268,279.972 C 83.34,279.684 88.092,276.228 88.884,275.724 C 95.292,269.316 95.292,269.316 97.956,266.652 C 98.028,266.58 98.1,266.58 98.172,266.58 C 97.812,268.236 95.724,271.116 95.868,271.98 C 96.156,272.052 96.444,271.98 96.948,272.412 C 94.572,277.164 88.02,279.324 83.268,279.972 z "
           style="fill:#ffffff;fill-rule:evenodd;stroke:#000000;stroke-width:0.21600001;stroke-linejoin:round"
           id="path660" />
        <path
           d="M 82.188,279.684 C 82.188,278.964 83.484,277.092 83.772,276.372 C 86.292,266.868 88.02,267.012 96.732,266.004 C 96.228,268.452 85.212,278.1 82.188,279.684 z "
           style="fill:#ffffff;fill-rule:evenodd;stroke:#000000;stroke-width:0.21600001;stroke-linejoin:round"
           id="path662" />
        <path
           d="M 121.788,278.676 C 120.996,276.732 120.06,274.788 119.196,272.916 C 121.068,272.628 123.012,272.484 124.884,272.34 C 124.38,274.428 123.516,276.804 122.076,278.676 C 122.004,278.676 121.932,278.676 121.788,278.676 z "
           style="fill:#ffffff;fill-rule:evenodd;stroke:#000000;stroke-width:0.21600001;stroke-linejoin:round"
           id="path664" />
        <path
           d="M 122.94,278.82 C 123.156,277.596 125.244,273.06 125.748,272.484 C 128.484,273.42 124.236,277.74 122.94,278.82 z "
           style="fill:#ffffff;fill-rule:evenodd;stroke:#000000;stroke-width:0.21600001;stroke-linejoin:round"
           id="path666" />
        <path
           d="M 109.188,274.788 C 109.188,274.716 109.188,274.644 109.188,274.5 C 111.348,273.924 116.388,269.892 117.036,270.108 C 117.324,270.756 117.54,271.548 117.756,272.34 C 114.588,273.564 112.428,274.644 109.188,274.788 z "
           style="fill:#ffffff;fill-rule:evenodd;stroke:#000000;stroke-width:0.21600001;stroke-linejoin:round"
           id="path668" />
        <path
           d="M 107.244,274.356 C 107.748,272.844 108.54,271.404 109.044,270.036 C 111.06,269.82 113.004,269.676 115.092,269.46 C 114.732,270.972 108.9,273.852 107.244,274.356 z "
           style="fill:#ffffff;fill-rule:evenodd;stroke:#000000;stroke-width:0.21600001;stroke-linejoin:round"
           id="path670" />
        <path
           d="M 71.748,273.42 C 71.892,272.844 75.42,271.476 76.356,270.972 C 79.74,268.452 85.284,262.908 89.028,261.468 C 88.884,262.764 87.372,263.916 86.796,265.212 C 87.876,265.572 87.876,265.572 87.948,265.716 C 83.34,270.972 78.948,272.988 71.748,273.42 z "
           style="fill:#ffffff;fill-rule:evenodd;stroke:#000000;stroke-width:0.21600001;stroke-linejoin:round"
           id="path672" />
        <path
           d="M 69.516,272.916 C 69.732,272.124 70.668,271.548 71.316,270.972 C 77.58,263.268 77.868,259.812 87.66,260.244 C 87.66,260.676 77.292,269.316 76.356,270.036 C 74.34,271.044 71.604,272.628 69.516,272.916 z "
           style="fill:#ffffff;fill-rule:evenodd;stroke:#000000;stroke-width:0.21600001;stroke-linejoin:round"
           id="path674" />
        <path
           d="M 97.308,271.404 C 98.748,268.524 99.036,266.148 100.044,263.7 C 102.564,264.132 105.372,264.708 108.108,265.068 C 108.18,265.068 108.18,265.14 108.252,265.14 C 105.804,267.948 100.476,270.036 97.308,271.404 z "
           style="fill:#ffffff;fill-rule:evenodd;stroke:#000000;stroke-width:0.21600001;stroke-linejoin:round"
           id="path676" />
        <path
           d="M 100.62,271.188 C 101.988,270.18 107.892,266.148 109.476,265.716 C 109.116,266.94 108.756,268.236 108.396,269.604 C 106.524,270.54 102.348,271.404 100.62,271.188 z "
           style="fill:#ffffff;fill-rule:evenodd;stroke:#000000;stroke-width:0.21600001;stroke-linejoin:round"
           id="path678" />
        <path
           d="M 63.972,267.012 C 63.036,266.94 62.172,266.868 61.236,266.868 C 61.236,266.724 61.236,266.58 61.236,266.508 C 66.996,264.996 71.748,261.9 76.644,258.372 C 81.612,255.492 83.556,253.836 83.916,254.484 C 80.244,261.396 71.82,266.652 63.972,267.012 z "
           style="fill:#ffffff;fill-rule:evenodd;stroke:#000000;stroke-width:0.21600001;stroke-linejoin:round"
           id="path680" />
        <path
           d="M 58.716,266.436 C 58.716,266.076 71.1,254.628 72.252,253.836 C 75.132,252.396 75.276,252.396 78.516,253.332 C 81.108,253.836 81.108,253.836 81.252,253.98 C 74.7,258.588 66.492,265.428 58.716,266.436 z "
           style="fill:#ffffff;fill-rule:evenodd;stroke:#000000;stroke-width:0.21600001;stroke-linejoin:round"
           id="path682" />
        <path
           d="M 91.116,264.708 C 90.972,264.636 90.9,264.636 90.828,264.636 C 90.828,264.42 90.828,264.348 90.828,264.276 C 92.988,262.692 99.036,257.508 100.908,257.292 C 100.62,263.844 96.804,264.42 91.116,264.708 z "
           style="fill:#ffffff;fill-rule:evenodd;stroke:#000000;stroke-width:0.21600001;stroke-linejoin:round"
           id="path684" />
        <path
           d="M 90.18,264.132 C 88.956,263.628 93.276,257.004 95.796,257.004 C 96.876,257.292 96.876,257.292 98.604,257.364 C 98.604,258.228 90.468,264.132 90.18,264.132 z "
           style="fill:#ffffff;fill-rule:evenodd;stroke:#000000;stroke-width:0.21600001;stroke-linejoin:round"
           id="path686" />
        <path
           d="M 53.244,259.02 C 53.1,258.876 52.956,258.876 52.74,258.876 C 53.028,258.3 58.428,256.068 59.652,255.492 C 61.452,254.196 74.988,244.548 77.796,244.98 C 74.34,251.748 74.556,250.74 69.084,254.484 C 65.124,258.444 58.5,258.66 53.244,259.02 z "
           style="fill:#ffffff;fill-rule:evenodd;stroke:#000000;stroke-width:0.21600001;stroke-linejoin:round"
           id="path688" />
        <path
           d="M 84.996,258.444 C 84.852,258.444 84.636,258.444 84.348,258.444 C 84.348,258.372 84.348,258.3 84.42,258.228 C 89.028,255.996 91.116,252.756 96.444,252.18 C 96.444,252.18 96.588,252.252 96.588,252.324 C 95.94,253.548 95.508,254.412 95.22,255.852 C 91.404,257.868 89.028,258.444 84.996,258.444 z "
           style="fill:#ffffff;fill-rule:evenodd;stroke:#000000;stroke-width:0.21600001;stroke-linejoin:round"
           id="path690" />
        <path
           d="M 52.452,257.94 C 52.668,256.428 61.524,248.004 63.972,245.988 C 68.724,243.108 69.804,243.972 75.06,244.548 C 74.988,244.62 74.988,244.764 74.988,244.836 C 67.14,248.94 60.804,255.06 52.452,257.94 z "
           style="fill:#ffffff;fill-rule:evenodd;stroke:#000000;stroke-width:0.21600001;stroke-linejoin:round"
           id="path692" />
        <path
           d="M 84.06,257.436 C 84.276,254.556 86.724,252.18 88.956,250.596 C 90.036,250.74 91.26,251.244 92.556,251.676 C 92.556,251.82 84.78,257.292 84.06,257.436 z "
           style="fill:#ffffff;fill-rule:evenodd;stroke:#000000;stroke-width:0.21600001;stroke-linejoin:round"
           id="path694" />
        <path
           d="M 79.38,251.748 C 78.66,251.676 77.868,251.46 77.076,251.388 C 77.004,251.244 77.004,251.172 77.004,250.956 C 79.74,250.308 82.692,249.156 85.644,248.004 C 89.1,246.132 89.1,246.132 89.46,245.988 C 88.164,251.244 84.276,251.748 79.38,251.748 z "
           style="fill:#ffffff;fill-rule:evenodd;stroke:#000000;stroke-width:0.21600001;stroke-linejoin:round"
           id="path696" />
        <path
           d="M 76.212,250.74 C 76.572,248.94 79.884,244.548 81.684,243.54 C 82.692,243.396 87.588,244.476 88.02,245.34 C 85.356,247.284 79.596,250.02 76.212,250.74 z "
           style="fill:#ffffff;fill-rule:evenodd;stroke:#000000;stroke-width:0.21600001;stroke-linejoin:round"
           id="path698" />
        <path
           d="M 114.804,249.372 C 104.868,247.212 102.852,243.9 97.092,235.764 C 93.42,229.716 90.684,223.236 85.572,218.628 C 84.42,217.26 79.74,214.668 79.596,214.02 C 81.54,214.38 90.684,215.748 91.332,217.116 C 92.628,216.828 93.42,218.052 94.932,218.34 C 94.5,215.892 85.86,209.916 84.276,208.836 C 74.988,204.012 64.26,201.708 54.468,198.828 C 52.74,197.964 51.228,197.028 49.716,196.524 C 42.156,191.988 32.796,182.484 29.772,174.564 C 29.916,174.564 30.06,174.564 30.132,174.564 C 35.316,182.268 46.26,190.332 54.612,194.796 C 73.404,201.852 92.916,204.084 101.556,225.252 C 103.644,233.316 108.18,243.828 115.236,249.084 C 115.236,249.084 115.164,249.228 115.164,249.372 C 115.092,249.372 114.876,249.372 114.804,249.372 z "
           style="fill:#ffffff;fill-rule:evenodd;stroke:#000000;stroke-width:0.21600001;stroke-linejoin:round"
           id="path700" />
        <path
           d="M 49.356,248.436 C 46.764,248.22 44.244,247.716 42.012,247.284 C 42.012,247.212 41.94,247.068 41.94,246.924 C 50.292,246.42 57.276,243.54 64.836,239.508 C 67.356,238.5 69.948,236.772 72.828,236.628 C 72.9,236.7 72.9,236.7 72.9,236.772 C 71.532,238.428 70.092,240.228 68.292,241.524 C 68.364,241.668 68.364,241.812 68.364,242.028 C 68.652,242.1 68.796,242.244 69.084,242.316 C 69.084,242.46 69.084,242.532 69.084,242.676 C 65.916,243.972 63.972,244.404 61.38,246.78 C 57.276,248.148 53.46,248.436 49.356,248.436 z "
           style="fill:#ffffff;fill-rule:evenodd;stroke:#000000;stroke-width:0.21600001;stroke-linejoin:round"
           id="path702" />
        <path
           d="M 42.876,246.348 C 42.876,245.772 55.404,236.772 56.844,235.836 C 60.084,234.468 67.428,232.884 70.596,235.98 C 61.308,239.94 52.956,245.772 42.876,246.348 z "
           style="fill:#ffffff;fill-rule:evenodd;stroke:#000000;stroke-width:0.21600001;stroke-linejoin:round"
           id="path704" />
        <path
           d="M 103.068,245.268 C 91.836,237.924 88.668,224.532 76.932,218.628 C 65.628,215.1 54.54,217.188 43.452,214.38 C 37.476,212.148 33.156,209.772 29.124,205.308 C 21.924,195.876 14.364,183.348 12.276,171.9 C 12.42,171.9 12.492,171.9 12.636,172.044 C 20.268,186.3 27.036,197.028 40.716,206.172 C 48.348,210.06 54.756,211.284 63.612,212.436 C 75.636,213.516 82.116,215.172 89.748,225.468 C 93.924,232.38 96.732,239.436 103.284,244.98 C 103.284,245.268 103.14,245.34 103.068,245.268 z "
           style="fill:#ffffff;fill-rule:evenodd;stroke:#000000;stroke-width:0.21600001;stroke-linejoin:round"
           id="path706" />
        <path
           d="M 77.508,242.46 C 75.924,242.172 74.196,242.028 72.684,241.74 C 73.26,239.22 82.188,237.636 84.492,237.852 C 84.492,241.524 80.172,242.46 77.508,242.46 z "
           style="fill:#ffffff;fill-rule:evenodd;stroke:#000000;stroke-width:0.21600001;stroke-linejoin:round"
           id="path708" />
        <path
           d="M 71.748,241.164 C 72.108,237.42 77.148,235.188 80.604,234.828 C 80.82,235.332 82.044,235.692 82.188,236.34 C 78.66,237.492 74.988,238.932 72.108,241.092 C 71.964,241.092 71.82,241.164 71.748,241.164 z "
           style="fill:#ffffff;fill-rule:evenodd;stroke:#000000;stroke-width:0.21600001;stroke-linejoin:round"
           id="path710" />
        <path
           d="M 86.148,235.98 C 84.852,235.764 83.916,235.548 83.052,235.116 C 83.052,234.9 83.052,234.828 83.052,234.756 C 84.924,234.252 87.084,232.38 88.668,232.38 C 89.1,232.956 90.18,233.82 90.324,234.756 C 88.812,235.692 87.66,235.836 86.148,235.98 z "
           style="fill:#ffffff;fill-rule:evenodd;stroke:#000000;stroke-width:0.21600001;stroke-linejoin:round"
           id="path712" />
        <path
           d="M 75.636,234.9 C 73.62,234.684 71.82,234.036 70.092,233.388 C 70.092,233.316 70.092,233.244 70.092,233.028 C 73.764,232.452 78.228,230.58 81.972,231.732 C 81.972,234.18 77.148,234.468 75.636,234.9 z "
           style="fill:#ffffff;fill-rule:evenodd;stroke:#000000;stroke-width:0.21600001;stroke-linejoin:round"
           id="path714" />
        <path
           d="M 82.044,233.964 C 81.972,233.82 81.972,233.748 81.972,233.532 C 83.844,232.02 84.204,230.508 87.444,230.508 C 87.66,230.796 87.948,231.228 88.308,231.66 C 87.732,232.092 83.052,233.964 82.044,233.964 z "
           style="fill:#ffffff;fill-rule:evenodd;stroke:#000000;stroke-width:0.21600001;stroke-linejoin:round"
           id="path716" />
        <path
           d="M 55.548,233.892 C 49.932,233.532 44.892,232.812 39.708,231.228 C 37.548,230.508 30.06,227.556 29.7,225.972 C 30.06,225.972 30.06,225.972 34.308,227.844 C 41.508,229.788 48.492,230.22 56.124,229.428 C 64.548,228.204 73.188,224.82 81.9,225.036 C 81.9,225.468 81.252,226.116 80.964,226.476 C 75.708,226.188 72.756,227.124 68.796,230.148 C 65.988,233.316 59.508,233.892 55.548,233.892 z "
           style="fill:#ffffff;fill-rule:evenodd;stroke:#000000;stroke-width:0.21600001;stroke-linejoin:round"
           id="path718" />
        <path
           d="M 68.796,232.596 C 68.724,232.452 68.724,232.38 68.724,232.308 C 69.012,232.092 69.156,232.02 69.444,231.948 C 73.26,228.636 74.7,227.772 80.1,227.844 C 79.74,231.084 71.388,232.452 68.796,232.596 z "
           style="fill:#ffffff;fill-rule:evenodd;stroke:#000000;stroke-width:0.21600001;stroke-linejoin:round"
           id="path720" />
        <path
           d="M 81.972,230.292 C 81.54,230.22 81.108,230.076 80.748,230.004 C 80.748,229.86 80.676,229.788 80.676,229.716 C 81.972,229.212 83.988,227.556 85.284,227.556 C 85.716,228.276 86.148,228.78 86.652,229.428 C 85.716,230.364 82.98,230.292 81.972,230.292 z "
           style="fill:#ffffff;fill-rule:evenodd;stroke:#000000;stroke-width:0.21600001;stroke-linejoin:round"
           id="path722" />
        <path
           d="M 46.548,229.356 C 39.78,228.852 35.172,227.772 29.268,225.108 C 29.268,225.036 29.196,224.964 29.196,224.82 C 39.276,227.268 47.844,225.684 57.852,223.452 C 57.852,223.452 57.852,223.38 57.78,223.308 C 58.428,223.164 59.94,222.732 60.156,222.66 C 60.156,222.444 60.156,222.228 60.3,222.084 C 49.86,222.3 40.356,222.876 31.14,218.052 C 29.772,217.116 19.404,210.348 19.188,209.412 C 25.02,209.484 28.692,212.652 33.156,216.684 C 42.948,223.596 51.588,220.716 62.676,218.196 C 69.516,218.196 76.068,219.132 81.9,223.596 C 80.388,224.604 72.396,223.74 71.316,225.18 C 62.604,227.484 55.332,229.356 46.548,229.356 z "
           style="fill:#ffffff;fill-rule:evenodd;stroke:#000000;stroke-width:0.21600001;stroke-linejoin:round"
           id="path724" />
        <path
           d="M 80.748,229.212 C 81.108,227.268 81.9,225.756 84.204,226.044 C 84.348,226.332 84.636,226.476 84.708,227.052 C 83.412,227.7 81.972,228.852 80.748,229.212 z "
           style="fill:#ffffff;fill-rule:evenodd;stroke:#000000;stroke-width:0.21600001;stroke-linejoin:round"
           id="path726" />
        <path
           d="M 44.82,220.428 C 43.524,220.212 42.372,220.14 41.076,219.996 C 33.588,218.412 28.98,210.708 21.852,208.836 C 21.852,208.692 21.852,208.62 21.852,208.548 C 24.588,207.612 26.676,207.684 29.7,207.972 C 36.9,214.524 44.244,216.252 54.036,217.26 C 58.86,217.908 58.86,217.908 58.932,218.052 C 56.34,219.708 48.132,220.356 44.82,220.428 z "
           style="fill:#ffffff;fill-rule:evenodd;stroke:#000000;stroke-width:0.21600001;stroke-linejoin:round"
           id="path728" />
        <path
           d="M 91.332,216.036 C 86.076,213.948 81.972,213.444 76.572,212.868 C 74.268,212.436 74.268,212.436 73.836,212.292 C 62.676,203.94 47.7,204.948 36.9,196.884 C 35.604,196.236 30.852,192.42 30.564,191.268 C 34.596,192.924 38.628,194.868 43.236,196.164 C 58.212,203.508 78.804,203.004 91.62,215.82 C 91.548,215.892 91.404,215.964 91.332,216.036 z "
           style="fill:#ffffff;fill-rule:evenodd;stroke:#000000;stroke-width:0.21600001;stroke-linejoin:round"
           id="path730" />
        <path
           d="M 71.82,212.22 C 58.932,210.492 49.212,210.492 38.916,202.428 C 37.332,200.772 31.356,195.156 30.924,193.284 C 31.068,193.356 31.14,193.356 31.356,193.428 C 35.172,197.028 39.78,200.124 44.82,202.5 C 53.964,205.524 63.972,206.388 72.396,212.076 C 72.252,212.148 71.964,212.148 71.82,212.22 z "
           style="fill:#ffffff;fill-rule:evenodd;stroke:#000000;stroke-width:0.21600001;stroke-linejoin:round"
           id="path732" />
        <path
           d="M 129.06,197.532 C 127.26,197.244 125.676,196.596 124.236,196.236 C 124.236,196.164 124.236,196.02 124.236,195.876 C 124.74,195.516 124.884,195.228 125.604,195.084 C 127.26,197.1 129.276,197.676 131.796,196.092 C 134.1,193.428 132.732,193.572 135.9,195.228 C 135.9,195.3 135.9,195.372 135.972,195.516 C 135.036,196.452 130.5,197.532 129.06,197.532 z "
           style="fill:#ffffff;fill-rule:evenodd;stroke:#000000;stroke-width:0.21600001;stroke-linejoin:round"
           id="path734" />
        <path
           d="M 183.132,309.636 C 177.804,307.476 176.364,302.724 181.404,299.556 C 181.476,299.412 181.476,299.196 181.692,299.052 C 180.9,297.612 170.892,300.348 168.948,300.852 C 169.452,297.828 177.084,297.324 179.244,296.82 C 173.628,296.82 170.46,297.684 166.356,301.356 C 166.284,301.356 166.212,301.428 166.14,301.428 C 167.292,297.396 171.252,296.244 174.924,295.812 C 174.924,295.74 174.996,295.74 174.996,295.596 C 173.772,293.796 167.292,298.476 164.772,296.172 C 164.916,293.724 166.212,291.924 166.212,289.26 C 168.372,288.972 173.484,289.26 175.572,290.628 C 175.788,290.556 175.932,290.556 176.076,290.556 C 175.788,289.116 174.348,288.108 174.42,286.956 C 178.524,286.956 182.7,286.956 186.948,286.38 C 190.692,285.588 195.084,284.076 198.9,283.572 C 200.124,279.972 206.676,278.82 208.62,282.708 C 209.844,289.116 208.476,293.22 201.204,291.204 C 200.196,291.204 195.948,291.492 196.164,292.932 C 198.756,294.084 203.436,295.38 206.532,295.308 C 208.836,296.244 211.644,299.628 209.124,302.004 C 206.316,300.996 198.9,302.436 201.276,306.612 C 201.276,306.9 201.276,307.044 201.276,307.26 C 199.332,308.196 197.604,305.964 197.172,304.74 C 197.316,303.372 197.316,302.004 197.388,300.636 C 195.804,299.124 186.804,294.444 189.108,300.42 C 190.692,302.076 193.284,301.068 193.284,305.244 C 192.924,306.468 191.7,307.836 190.332,307.692 C 187.308,306.324 185.652,307.476 183.708,309.636 C 183.42,309.636 183.276,309.636 183.132,309.636 z "
           style="fill:#ffffff;fill-rule:evenodd;stroke:#000000;stroke-width:0.21600001;stroke-linejoin:round"
           id="path738" />
      </g>
    </g>
  </g>
  <path
     d="M 362.875,178.96875 C 360.00625,178.94766 357.05675,179.29375 353.84375,179.96875 C 342.10775,186.44875 338.80525,196.09424 335.78125,208.40625 C 333.90925,225.25425 340.659,244.411 358.875,248.875 C 358.515,281.779 358.2255,314.45875 357.9375,347.21875 C 357.3615,352.76275 357.092,356.13524 354.5,361.03125 C 350.684,364.77525 346.64626,367.73026 343.40625,371.90625 C 334.40625,385.87425 343.17775,402.147 359.59375,403.875 C 371.68975,403.875 380.49474,396.2455 381.71875,384.4375 C 381.71875,381.7015 381.98474,378.39374 379.96875,376.59375 C 372.84075,374.00175 374.93875,382.20849 374.21875,386.3125 C 371.69875,393.8005 365.43499,396.19276 357.875,394.96875 C 356.003,394.39275 351.31249,392.0065 351.3125,390.0625 C 351.0965,389.9905 351.04076,389.99999 350.96875,390 C 344.48875,379.416 354.57575,374.50174 361.34375,368.09375 C 365.80775,362.40575 366.64825,357.86849 367.65625,350.8125 C 368.73625,316.3245 369.45524,282.291 370.03125,247.875 C 377.44725,245.643 381.91799,243.381 387.75,238.125 C 404.886,220.053 399.623,192.5025 377.375,182.0625 C 372.2,180.0375 367.65625,179.00391 362.875,178.96875 z M 358.125,181.53125 C 366.90373,181.14456 372.95725,192.566 375.8125,200.28125 C 377.25251,207.98524 378.315,215.455 376.875,223.375 C 376.803,223.447 376.4495,223.2935 374.9375,223.4375 C 373.0655,232.5095 367.175,244.8995 356.375,245.1875 C 355.29499,245.1155 354.70775,244.9035 353.84375,244.6875 C 353.84376,244.6155 353.84375,244.55975 353.84375,244.34375 C 350.96376,244.12775 347.42775,239.7905 345.84375,238.0625 C 333.24376,222.65451 336.62475,194.0785 352.96875,183.0625 C 354.78,182.08375 356.49931,181.60286 358.125,181.53125 z M 375.9375,194.875 C 378.0255,200.419 379.19025,205.2455 379.40625,211.4375 C 379.19026,211.43751 378.966,211.5 378.75,211.5 C 377.95799,205.812 377.54175,200.83075 375.09375,195.71875 C 375.09374,195.57476 375.09375,195.4565 375.09375,195.3125 C 375.38174,195.1685 375.5775,194.875 375.9375,194.875 z M 366.65625,248.4375 C 366.36825,281.7015 365.716,314.9765 365.5,348.3125 C 365.212,355.80051 364.00325,362.40575 358.53125,368.09375 C 352.33926,373.27774 345.79375,377.303 347.59375,386.375 C 350.18576,394.007 354.7825,396.7405 363.0625,396.8125 C 362.8465,397.2445 359.6725,397.125 359.3125,397.125 C 350.38449,395.757 345.128,388.48375 347,379.84375 C 350.456,372.28375 357.449,370.10225 361.625,363.40625 C 364.145,358.22224 364.35875,353.19075 364.71875,347.71875 C 365.00675,314.67075 365.443,281.692 365.875,248.5 C 366.16299,248.5 366.36825,248.4375 366.65625,248.4375 z "
     style="fill:#000000;stroke:#000000;stroke-width:0.21600001;stroke-linecap:square;stroke-linejoin:round"
     id="path46" />
  <path
     d="M 378.756,211.5 C 377.964,205.812 377.532,200.844 375.084,195.732 C 375.084,195.588 375.084,195.444 375.084,195.3 C 375.372,195.156 375.588,194.868 375.948,194.868 C 378.036,200.412 379.188,205.236 379.404,211.428 C 379.188,211.428 378.972,211.5 378.756,211.5"
     style="fill:none;stroke:#000000;stroke-width:0.21600001;stroke-linecap:square;stroke-linejoin:round"
     id="path48" />
  <path
     d="M 358.0625,183.46875 C 356.54776,183.50735 354.96875,183.9435 353.28125,184.875 C 345.00125,191.139 341.2335,200.8575 339.9375,210.9375 C 339.9375,223.5375 343.19374,239.79675 357.59375,243.46875 C 359.32175,243.46875 360.38474,242.879 361.96875,242.375 C 375.93675,231.863 377.68125,211.99225 372.28125,196.65625 C 369.53175,190.51375 364.62638,183.30148 358.0625,183.46875 z M 348.71875,196.875 C 348.79076,197.091 348.51625,198.0315 348.15625,199.6875 C 346.21224,207.9675 346.7875,218.05 352.1875,225.25 C 354.27551,227.266 362.28275,234.16725 354.21875,235.03125 C 348.17074,233.01524 345.84775,221.57125 345.34375,216.53125 C 345.41576,213.57926 346.41475,198.027 348.71875,196.875 z "
     style="fill:#000000;stroke:#000000;stroke-width:0.21600001;stroke-linecap:square;stroke-linejoin:round"
     id="path54" />
  <path
     d="M 313.02,403.236 C 310.5,402.372 310.14,401.724 309.132,399.78 C 308.772,375.156 308.052,321.876 307.476,290.412 C 307.044,276.156 306.324,267.084 292.932,260.316 C 276.948,254.124 256.86,245.844 259.884,225.396 C 263.7,208.98 274.14,195.156 283.212,181.26 C 284.724,182.268 286.38,183.42 287.892,184.5 C 282.42,195.66 270.18,214.524 275.796,228.204 C 284.436,244.692 311.868,241.668 318.852,261.036 C 320.22,266.436 320.508,271.116 320.292,276.804 C 319.644,317.556 319.14,358.596 318.636,399.564 C 317.196,402.156 316.044,403.236 313.02,403.236"
     style="fill:none;stroke:#000000;stroke-width:0.21600001;stroke-linecap:square;stroke-linejoin:round"
     id="path66" />
  <path
     d="M 292.5,256.5 C 283.356,254.844 287.172,242.244 296.028,246.204 C 300.636,249.66 298.548,256.5 292.5,256.5"
     style="fill:none;stroke:#000000;stroke-width:0.21600001;stroke-linecap:square;stroke-linejoin:round"
     id="path68" />
  <path
     d="M 269.532,402.372 C 266.364,401.652 265.788,400.356 265.068,397.548 C 265.068,355.212 265.788,312.732 265.428,270.684 C 266.004,263.628 267.516,257.22 272.34,252.036 C 278.172,256.212 285.156,258.084 291.78,260.892 C 291.564,261.108 290.268,261.756 287.892,263.34 C 280.62,269.748 279.252,277.02 278.676,286.452 C 277.596,319.716 275.148,386.316 274.86,398.124 C 273.78,401.436 272.988,402.3 269.532,402.372 z "
     style="fill:#000000;fill-opacity:1;fill-rule:evenodd;stroke:#000000;stroke-width:0.21600001;stroke-linejoin:round"
     id="path72" />
  <path
     d="M 313.164,250.452 C 307.116,245.772 300.852,243.612 294.156,240.588 C 294.156,240.516 294.156,240.444 294.084,240.372 C 303.66,236.556 310.068,233.316 312.66,222.804 C 313.092,212.292 306.972,201.636 302.796,192.78 C 301.572,189.9 299.124,184.572 299.052,184.212 C 303.156,181.332 303.156,181.332 303.3,181.332 C 310.284,192.564 317.772,203.436 323.604,215.604 C 329.22,230.652 326.412,240.876 313.452,250.452 C 313.38,250.452 313.308,250.452 313.164,250.452 z "
     style="fill:#000000;fill-rule:evenodd;stroke:#000000;stroke-width:0.21600001;stroke-linejoin:round"
     id="path74" />
  <path
     d="M 283.21875,181.25 C 274.14675,195.146 263.691,208.99025 259.875,225.40625 C 256.851,245.85425 276.95349,254.12049 292.9375,260.3125 C 306.3295,267.0805 307.03674,276.15026 307.46875,290.40625 C 308.04475,321.87025 308.76501,375.15725 309.125,399.78125 C 310.133,401.72525 310.51126,402.38601 313.03125,403.25 C 316.05525,403.25 317.18501,402.1545 318.625,399.5625 C 319.129,358.5945 319.63326,317.56451 320.28125,276.8125 C 320.49725,271.1245 320.21176,266.43124 318.84375,261.03125 C 311.85975,241.66325 284.42126,244.70676 275.78125,228.21875 C 270.16525,214.53875 282.43425,195.66 287.90625,184.5 C 286.39425,183.42 284.73074,182.25801 283.21875,181.25 z M 292.96875,245.4375 C 293.90278,245.46872 294.92425,245.72375 296.03125,246.21875 C 300.63923,249.67476 298.548,256.5 292.5,256.5 C 284.499,255.051 286.43053,245.21897 292.96875,245.4375 z "
     style="fill:#000000;stroke:#000000;stroke-width:0.21600001;stroke-linecap:square;stroke-linejoin:round"
     id="path410" />
  <path
     d="M 292.212,254.844 C 284.868,252.684 290.844,242.604 296.46,249.012 C 297.684,252.468 295.668,254.844 292.212,254.844"
     style="fill:#000000;stroke:#000000;stroke-width:0.21600001;stroke-linecap:square;stroke-linejoin:round"
     id="path70" />
</svg>
